<?xml version="1.0" encoding="UTF-8"?>
<svg width="1286px" height="8px" viewBox="0 0 1286 8" version="1.1" xmlns="http://www.w3.org/2000/svg" xmlns:xlink="http://www.w3.org/1999/xlink">
    <!-- Generator: Sketch 51.1 (57501) - http://www.bohemiancoding.com/sketch -->
    <title>line26</title>
    <desc>Created with Sketch.</desc>
    <defs></defs>
    <g id="landing" stroke="none" stroke-width="1" fill="none" fill-rule="evenodd" opacity="0.04">
        <g id="Heimdall_1440&amp;&lt;" transform="translate(-77.000000, -3183.000000)" fill="#F2EEFF" fill-rule="nonzero">
            <g id="Open-Sorce" transform="translate(-5.000000, 3183.000000)">
                <g id="lines_purpule_block" transform="translate(725.000000, 184.000000) scale(-1, -1) translate(-725.000000, -184.000000) ">
                    <path d="M392,360 L782,360 L782,368 L392,368 L392,360 Z M261,360 L364,360 L364,368 L261,368 L261,360 Z M206,360 L233,360 L233,368 L206,368 L206,360 Z M123,360 L178,360 L178,368 L123,368 L123,360 Z M82,360 L96,360 L96,368 L82,368 L82,360 Z M633,360 L633,368 L649,368 L649,360 L633,360 Z M978,360 L1368,360 L1368,368 L978,368 L978,360 Z M847,360 L950,360 L950,368 L847,368 L847,360 Z M792,360 L819,360 L819,368 L792,368 L792,360 Z M709,360 L764,360 L764,368 L709,368 L709,360 Z M668,360 L682,360 L682,368 L668,368 L668,360 Z M1238,360 L1238,368 L1254,368 L1254,360 L1238,360 Z" id="line26"></path>
                </g>
            </g>
        </g>
    </g>
</svg>