<?xml version="1.0" encoding="UTF-8"?>
<svg width="1440px" height="8px" viewBox="0 0 1440 8" version="1.1" xmlns="http://www.w3.org/2000/svg" xmlns:xlink="http://www.w3.org/1999/xlink">
    <!-- Generator: Sketch 51.1 (57501) - http://www.bohemiancoding.com/sketch -->
    <title>line19</title>
    <desc>Created with Sketch.</desc>
    <defs></defs>
    <g id="landing" stroke="none" stroke-width="1" fill="none" fill-rule="evenodd" opacity="0.04">
        <g id="Heimdall_1440&amp;&lt;" transform="translate(0.000000, -3207.000000)" fill="#F2EEFF" fill-rule="nonzero">
            <g id="Open-Sorce" transform="translate(-5.000000, 3183.000000)">
                <g id="lines_purpule_block" transform="translate(725.000000, 184.000000) scale(-1, -1) translate(-725.000000, -184.000000) ">
                    <path d="M850,336 L1450,336 L1450,344 L850,344 L850,336 Z M754,336 L834,336 L834,344 L754,344 L754,336 Z M730,336 L738,336 L738,344 L730,344 L730,336 Z M682,336 L714,336 L714,344 L682,344 L682,336 Z M1333,336 L1333,344 L1349,344 L1349,336 L1333,336 Z M1364,336 L1364,344 L1380,344 L1380,336 L1364,336 Z M168,336 L728,336 L728,344 L168,344 L168,336 Z M72,336 L152,336 L152,344 L72,344 L72,336 Z M48,336 L56,336 L56,344 L48,344 L48,336 Z M0,336 L32,336 L32,344 L0,344 L0,336 Z M650,336 L650,344 L666,344 L666,336 L650,336 Z" id="line19"></path>
                </g>
            </g>
        </g>
    </g>
</svg>