<?xml version="1.0" encoding="UTF-8"?>
<svg width="1286px" height="8px" viewBox="0 0 1286 8" version="1.1" xmlns="http://www.w3.org/2000/svg" xmlns:xlink="http://www.w3.org/1999/xlink">
    <!-- Generator: Sketch 51.1 (57501) - http://www.bohemiancoding.com/sketch -->
    <title>line1</title>
    <desc>Created with Sketch.</desc>
    <defs></defs>
    <g id="landing" stroke="none" stroke-width="1" fill="none" fill-rule="evenodd">
        <g id="Heimdall_1440&amp;&lt;" transform="translate(-77.000000, -703.000000)" fill="#6732FF" fill-rule="nonzero">
            <g id="lines" transform="translate(720.000000, 765.000000) scale(-1, -1) translate(-720.000000, -765.000000) translate(-55.000000, 703.000000)">
                <path d="M1028,116 L1418,116 L1418,124 L1028,124 L1028,116 Z M897,116 L1000,116 L1000,124 L897,124 L897,116 Z M842,116 L869,116 L869,124 L842,124 L842,116 Z M759,116 L814,116 L814,124 L759,124 L759,116 Z M718,116 L732,116 L732,124 L718,124 L718,116 Z M1288,116 L1288,124 L1304,124 L1304,116 L1288,116 Z M442,116 L832,116 L832,124 L442,124 L442,116 Z M311,116 L414,116 L414,124 L311,124 L311,116 Z M256,116 L283,116 L283,124 L256,124 L256,116 Z M173,116 L228,116 L228,124 L173,124 L173,116 Z M132,116 L146,116 L146,124 L132,124 L132,116 Z M683,116 L683,124 L699,124 L699,116 L683,116 Z" id="line1"></path>
            </g>
        </g>
    </g>
</svg>