<?xml version="1.0" encoding="UTF-8"?>
<svg width="1382px" height="14px" viewBox="0 0 1382 14" version="1.1" xmlns="http://www.w3.org/2000/svg" xmlns:xlink="http://www.w3.org/1999/xlink">
    <!-- Generator: Sketch 51.1 (57501) - http://www.bohemiancoding.com/sketch -->
    <title>line4</title>
    <desc>Created with Sketch.</desc>
    <defs></defs>
    <g id="landing" stroke="none" stroke-width="1" fill="none" fill-rule="evenodd">
        <g id="Heimdall_1440&amp;&lt;" transform="translate(-29.000000, -789.000000)" fill="#6732FF" fill-rule="nonzero">
            <g id="lines" transform="translate(720.000000, 765.000000) scale(-1, -1) translate(-720.000000, -765.000000) translate(-55.000000, 703.000000)">
                <path d="M228,24 L778,24 L778,38 L228,38 L228,24 Z M164,24 L212,24 L212,38 L164,38 L164,24 Z M116,24 L148,24 L148,38 L116,38 L116,24 Z M84,24 L100,24 L100,38 L84,38 L84,24 Z M744,24 L744,38 L760,38 L760,24 L744,24 Z M911,24 L1466,24 L1466,38 L911,38 L911,24 Z M847,24 L895,24 L895,38 L847,38 L847,24 Z M799,24 L831,24 L831,38 L799,38 L799,24 Z M767,24 L783,24 L783,38 L767,38 L767,24 Z" id="line4"></path>
            </g>
        </g>
    </g>
</svg>