<?xml version="1.0" encoding="UTF-8"?>
<svg width="53px" height="52px" viewBox="0 0 53 52" version="1.1" xmlns="http://www.w3.org/2000/svg" xmlns:xlink="http://www.w3.org/1999/xlink">
    <!-- Generator: sketchtool 51.1 (57501) - http://www.bohemiancoding.com/sketch -->
    <title>7CA82EB6-81F7-4696-9891-358DC0892B03</title>
    <desc>Created with sketchtool.</desc>
    <defs></defs>
    <g id="landing" stroke="none" stroke-width="1" fill="none" fill-rule="evenodd">
        <g id="Heimdall_1440&amp;&lt;" transform="translate(-694.000000, -1283.000000)" fill-rule="nonzero">
            <g id="Why-do-you-need-Heimdall?" transform="translate(176.000000, 1189.000000)">
                <g id="blocks" transform="translate(0.000000, 94.000000)">
                    <g id="2" transform="translate(397.000000, 0.000000)">
                        <g id="icons/code" transform="translate(122.000000, 0.000000)">
                            <rect id="Rectangle-4" fill="#F2EEFF" x="4" y="11" width="48" height="41" rx="5"></rect>
                            <path d="M17.0854359,24.7037212 L19.0395641,25.1296122 L15.3163498,42.2129455 L13.3622216,41.7870545 L17.0854359,24.7037212 Z M19.0395641,25.1296122 L15.3163498,42.2129455 L13.3622216,41.7870545 L17.0854359,24.7037212 L19.0395641,25.1296122 Z M10.3509653,41.138181 L8.93921344,42.554852 L-0.189001135,33.4583333 L8.93921342,24.3618143 L10.3509653,25.7784853 L2.64435793,33.4583333 L10.3509653,41.138181 Z M24.0151061,25.7784853 L25.426858,24.3618144 L34.5550714,33.4583333 L25.426858,42.5548519 L24.0151061,41.1381811 L31.7217126,33.4583333 L24.0151061,25.7784853 Z" id="Path" fill="#6732FF"></path>
                            <path d="M47,12.5 L2,12.5 L2,24.9166667 L0,24.9166667 L0,6.125 C0,2.7616195 2.77124187,0 6.14285714,0 L42.8571429,0 C46.2287572,0 49,2.76161993 49,6.125 L49,36.875 C49,40.2383791 46.2287568,43 42.8571429,43 L37.7142857,43 L37.7142857,41 L42.8571429,41 C45.1257415,41 47,39.1322494 47,36.875 L47,12.5 Z M47,10.5 L47,6.125 C47,3.86774978 45.125742,2 42.8571429,2 L6.14285714,2 C3.8742571,2 2,3.86774926 2,6.125 L2,10.5 L47,10.5 Z" id="Path" fill="#6732FF"></path>
                        </g>
                    </g>
                </g>
            </g>
        </g>
    </g>
</svg>