<?xml version="1.0" encoding="UTF-8"?>
<svg width="14px" height="14px" viewBox="0 0 14 14" version="1.1" xmlns="http://www.w3.org/2000/svg" xmlns:xlink="http://www.w3.org/1999/xlink">
    <!-- Generator: sketchtool 51.1 (57501) - http://www.bohemiancoding.com/sketch -->
    <title>47D9CF9D-2C85-448E-B351-FF21F9146D09</title>
    <desc>Created with sketchtool.</desc>
    <defs></defs>
    <g id="Symbols" stroke="none" stroke-width="1" fill="none" fill-rule="evenodd">
        <g id="icons/small/copy-icon-purpule" fill="#6732FF" fill-rule="nonzero">
            <g id="icons/small/copy-icon">
                <path d="M1.5,0 C0.675781,0 0,0.675781 0,1.5 L0,10.5 C0,11.324219 0.675781,12 1.5,12 L2,12 L2,12.5 C2,13.324219 2.675781,14 3.5,14 L12.5,14 C13.324219,14 14,13.324219 14,12.5 L14,3.5 C14,2.675781 13.324219,2 12.5,2 L12,2 L12,1.5 C12,0.675781 11.324219,0 10.5,0 L1.5,0 Z M1.5,1 L10.5,1 C10.78125,1 11,1.21875 11,1.5 L11,2 L3.5,2 C2.675781,2 2,2.675781 2,3.5 L2,11 L1.5,11 C1.21875,11 1,10.78125 1,10.5 L1,1.5 C1,1.21875 1.21875,1 1.5,1 Z M3.5,3 L12.5,3 C12.78125,3 13,3.21875 13,3.5 L13,12.5 C13,12.78125 12.78125,13 12.5,13 L3.5,13 C3.21875,13 3,12.78125 3,12.5 L3,3.5 C3,3.21875 3.21875,3 3.5,3 Z M10.5,4 C10.117188,4 9.730469,4.148438 9.4375,4.4375 L8.4375,5.4375 C7.980469,5.898438 7.894531,6.578125 8.15625,7.132813 C8.152344,7.136719 8.148438,7.140625 8.148438,7.148438 L7.148438,8.148438 C7.144531,8.148438 7.140625,8.152344 7.136719,8.15625 C7.136719,8.15625 7.136719,8.160156 7.132813,8.15625 C6.578125,7.898438 5.898438,7.980469 5.4375,8.4375 L4.4375,9.4375 C3.855469,10.023438 3.855469,10.976563 4.4375,11.5625 C4.722656,11.84375 5.101563,12 5.5,12 C5.898438,12 6.277344,11.84375 6.5625,11.5625 L7.5625,10.5625 C8.019531,10.101563 8.105469,9.421875 7.84375,8.867188 C7.847656,8.863281 7.851563,8.859375 7.851563,8.851563 L8.851563,7.851563 C8.855469,7.851563 8.855469,7.851563 8.859375,7.851563 C9.003906,7.703125 9.042969,7.488281 8.964844,7.296875 C8.882813,7.109375 8.695313,6.992188 8.492188,6.996094 C8.371094,7 8.257813,7.042969 8.171875,7.125 L9.148438,6.148438 L10.144531,5.148438 C10.242188,5.050781 10.371094,5 10.5,5 C10.628906,5 10.753906,5.050781 10.855469,5.148438 C11.046875,5.339844 11.046875,5.660156 10.855469,5.851563 L9.851563,6.851563 L8.859375,7.851563 C9.054688,7.945313 9.273438,8 9.5,8 C9.898438,8 10.277344,7.84375 10.5625,7.5625 L11.5625,6.5625 C12.144531,5.976563 12.144531,5.023438 11.5625,4.4375 C11.269531,4.148438 10.882813,4 10.5,4 Z M7.109375,8.183594 C6.9375,8.382813 6.949219,8.683594 7.136719,8.871094 C7.328125,9.054688 7.628906,9.0625 7.824219,8.882813 L6.851563,9.851563 L5.851563,10.855469 C5.664063,11.042969 5.335938,11.042969 5.148438,10.855469 C4.953125,10.660156 4.953125,10.339844 5.148438,10.144531 L6.148438,9.148438 L7.109375,8.183594 Z" id="Shape"></path>
            </g>
        </g>
    </g>
</svg>