<?xml version="1.0" encoding="UTF-8"?>
<svg width="52px" height="52px" viewBox="0 0 52 52" version="1.1" xmlns="http://www.w3.org/2000/svg" xmlns:xlink="http://www.w3.org/1999/xlink">
    <!-- Generator: sketchtool 51.1 (57501) - http://www.bohemiancoding.com/sketch -->
    <title>F7D4FC42-9890-48E9-8CD5-FF026BE3EAAA</title>
    <desc>Created with sketchtool.</desc>
    <defs></defs>
    <g id="landing" stroke="none" stroke-width="1" fill="none" fill-rule="evenodd">
        <g id="Heimdall_1440&amp;&lt;" transform="translate(-1092.000000, -1283.000000)" fill-rule="nonzero">
            <g id="Why-do-you-need-Heimdall?" transform="translate(176.000000, 1189.000000)">
                <g id="blocks" transform="translate(0.000000, 94.000000)">
                    <g id="3" transform="translate(794.000000, 0.000000)">
                        <g id="icons/docs" transform="translate(122.000000, 0.000000)">
                            <path d="M24.3076923,4 C21.2644222,4 18.7692308,6.49519138 18.7692308,9.53846154 L18.7692308,15.0769231 L9.53846154,15.0769231 C6.49519138,15.0769231 4,17.5721145 4,20.6153846 L4,46.4615385 C4,49.5048086 6.49519138,52 9.53846154,52 L31.6923077,52 C34.7355778,52 37.2307692,49.5048086 37.2307692,46.4615385 L37.2307692,40.9230769 L46.4615385,40.9230769 C49.5048086,40.9230769 52,38.4278855 52,35.3846154 L52,16.1586548 L39.8413452,4 L24.3076923,4 Z" id="Shape-Copy-3" fill="#F2EEFF"></path>
                            <path d="M31,23.3284271 L20.6715729,13 L5,13 C3.34314575,13 2,14.3431458 2,16 L2,43 C2,44.6568542 3.34314575,46 5,46 L28,46 C29.6568542,46 31,44.6568542 31,43 L31,23.3284271 Z M5,11 L21.5,11 L33,22.5 L33,43 C33,45.7614237 30.7614237,48 28,48 L5,48 C2.23857625,48 -4.54409174e-13,45.7614237 -4.54747351e-13,43 L-4.54747351e-13,16 C-4.55085528e-13,13.2385763 2.23857625,11 5,11 Z" id="Rectangle-7" fill="#6732FF"></path>
                            <polygon id="Path-2" fill="#6732FF" points="22 22 32 22 32 24 20 24 20 12 22 12"></polygon>
                            <path d="M34.0857864,1.41421356 L35.5,2 L34.6715729,2 L34.0857864,1.41421356 Z M34.6715729,2 L45,12.3284271 L45,32 C45,33.6568542 43.6568542,35 42,35 L32,35 L32,37 L42,37 C44.7614237,37 47,34.7614237 47,32 L47,11.5 L35.5,0 L19,0 C16.2385763,0 14,2.23857625 14,5 L14,12.5 L16,12.5 L16,5 C16,3.34314575 17.3431458,2 19,2 L34.6715729,2 Z M45,12.3284271 L45.5857864,12.9142136 L45,11.5 L45,12.3284271 Z M45,11.5 L45.5857864,12.9142136 L45,12.3284271 L45,11.5 Z M45,12.3284271 L45,32 C45,33.6568542 43.6568542,35 42,35 L32,35 L32,37 L42,37 C44.7614237,37 47,34.7614237 47,32 L47,11.5 L35.5,0 L19,0 C16.2385763,0 14,2.23857625 14,5 L14,12.5 L16,12.5 L16,5 C16,3.34314575 17.3431458,2 19,2 L34.6715729,2 L45,12.3284271 Z M34.6715729,2 L35.5,2 L34.0857864,1.41421356 L34.6715729,2 Z" id="Rectangle-7-Copy" fill="#6732FF"></path>
                            <polygon id="Path-2-Copy" fill="#6732FF" points="36 11 46 11 46 13 34 13 34 1 36 1"></polygon>
                        </g>
                    </g>
                </g>
            </g>
        </g>
    </g>
</svg>