<?xml version="1.0" encoding="UTF-8"?>
<svg width="52px" height="52px" viewBox="0 0 52 52" version="1.1" xmlns="http://www.w3.org/2000/svg" xmlns:xlink="http://www.w3.org/1999/xlink">
    <!-- Generator: sketchtool 51.1 (57501) - http://www.bohemiancoding.com/sketch -->
    <title>0135ED1B-DFAF-4FB3-9BA5-00E3ABFE2049</title>
    <desc>Created with sketchtool.</desc>
    <defs></defs>
    <g id="Symbols" stroke="none" stroke-width="1" fill="none" fill-rule="evenodd">
        <g id="icons/heimdallicon">
            <path d="M35.9411603,50.267098 C38.4116947,48.0686743 39.8233893,44.8318786 40.1765191,40.5569933 C40.1765191,39.580167 40.5881832,39.152735 41.4117863,39.2746971 C42.6470534,39.4579226 42.6470534,39.6411481 43.1763359,38.3585696 C43.7058931,37.0762734 41.5882137,36.3436537 42.9999084,34.14523 C44.4116031,31.9465239 46,27.366451 46,22.9696036 C46,18.5724738 44.9411603,11.2443007 39.8233893,5.19842371 L37.7059847,8.86265145 C39.5881527,10.9388307 40.5881832,13.9314198 40.7058015,17.8398541 C40.882229,23.7022233 38.0588397,25.900647 36.8235725,25.5344783 C35.5883053,25.1680273 33.2941985,24.2518998 30.4705344,24.2518998 C27.647145,24.2518998 27.1175878,24.8015763 24.9999084,24.8015763 C22.882229,24.8015763 20.5881221,22.2367016 19.8824122,19.85477 C19.1764275,17.4734031 17.4116031,11.7939772 23.9410687,7.03067874 L23.9410687,3 C21.4705344,4.22131514 19.0588092,5.99230679 16.7058931,8.31325726 C13.1765191,11.7939772 12.2941069,16.0075991 11.9409771,17.4734031 C11.5881221,18.9389248 11.9409771,22.9696036 13.0000916,24.8015763 L10,26.267098 L15.2939237,33.412328 C15.7646718,34.0229855 15.9999084,34.6336431 15.9999084,35.2443007 C15.9999084,35.8549582 15.2939237,36.5878603 13.882229,37.4427244 L15.2939237,39.2746971 L17.7647328,38.3585696 L18.2940153,38.7250206 C18.4116336,41.0456887 19.0588092,42.9999059 20.2352672,44.587672 C21.6469618,44.587672 22.5881832,44.4654276 23.0589313,44.221221 C25.0587176,47.7632043 26.9999695,50.0228914 28.8824122,51 L31.0000916,49.167745 L31.0000916,39.2746971 C28.4116641,38.5420774 26.2351756,36.8320668 24.470626,34.14523 C28,32.5574638 31.1177099,33.2900835 33.8234809,36.3436537 L33.9999084,36.7098224 L36.1175878,36.7098224 C36.8235725,35.4885072 38.0000305,34.6336431 39.6469618,34.14523 C39.5293435,35.6107517 38.7060153,37.1372544 37.1764275,38.7250206 C36.9411908,41.2898953 36.5880611,43.3663569 36.1175878,44.954123 C35.6471145,46.5418892 35.1763664,47.9464298 34.7058931,49.167745 L35.9411603,50.267098 Z" id="Fill-13-Copy" fill="#F2EEFF"></path>
            <path d="M8.07841975,22.4813123 C7.2437911,20.4484753 6.87338625,16.9499068 7.26792543,15.3112569 C7.2774144,15.2718692 7.36063779,14.9214545 7.39016494,14.7995562 C7.44703301,14.564785 7.50084085,14.3516684 7.5592933,14.1326673 C7.71213495,13.5600224 7.88222054,13.0035797 8.08454838,12.4351895 C8.61532573,10.9441014 9.31473589,9.52296435 10.2389529,8.18372987 C10.8196797,7.34222903 11.4778073,6.55206751 12.2197171,5.82038529 C14.622902,3.44984885 17.0940541,1.63514616 19.6342663,0.379385586 C20.0943928,0.151920866 20.6333764,0.486719809 20.6333764,1 L20.6333764,5.03067874 C20.6333764,5.25181688 20.527734,5.45964937 20.3490818,5.58997763 C19.0539094,6.53481644 18.059459,7.54485185 17.3355504,8.6123332 C15.6025806,11.1677841 15.4756353,13.7363176 16.2841058,16.7457005 C16.3572048,17.0177982 16.3966814,17.1537652 16.5461991,17.6581057 C17.2245247,19.9476088 19.3573847,22.1092686 20.9999084,22.1092686 C21.7005211,22.1092686 22.197917,22.0546977 22.9440377,21.9196234 C23.0290982,21.9042244 23.1412363,21.8835161 23.3458125,21.8457659 C24.4466028,21.6440793 25.2331937,21.5595921 26.4705344,21.5595921 C28.0717927,21.5595921 29.5715529,21.8234382 31.2097021,22.3032269 C31.670071,22.4380619 32.8936926,22.833151 33.0203299,22.8707189 C33.3602991,22.9714956 34.0968971,22.5552001 34.7210023,21.6344345 C35.5935661,20.3471087 36.0897807,18.3851449 36.0138071,15.8606786 C35.9007843,12.1049528 34.9531723,9.26916487 33.1930713,7.32763503 C32.9909825,7.10471522 32.9560177,6.77678785 33.1065606,6.51626922 L35.2239652,2.85204148 C35.4636959,2.43718084 36.0422284,2.38541723 36.3518001,2.7511296 C40.7895098,7.99361649 42.6923077,14.5943106 42.6923077,20.9696036 C42.6923077,25.0615538 41.2990129,29.8457726 39.5824528,32.5193047 C39.0616533,33.3303427 39.0882613,33.7328166 39.5008806,34.5384827 C39.7163688,34.9592374 39.7183629,34.9632593 39.7865958,35.1330845 C39.992058,35.6444607 40.023627,36.1206133 39.8162933,36.6226612 C39.6101584,37.1221757 39.5034317,37.3500561 39.3644778,37.5507355 C39.1078077,37.9214225 38.7659125,38.0992602 38.3262566,38.0965321 C38.1885185,38.0956775 38.0536616,38.0800256 37.8459727,38.0465 C37.91934,38.0583431 37.4545712,37.9809254 37.3103727,37.9595367 C36.9374876,37.9043185 36.8688268,37.9755973 36.8664767,38.6139877 C36.4995958,43.0553408 35.0153613,46.4582191 32.4013843,48.7842864 C32.1389787,49.01779 31.7432941,49.0177774 31.4809033,48.784257 L30.2456362,47.684904 C30.0302083,47.4931792 29.9561948,47.1879927 30.0598614,46.9188816 C30.5238367,45.7144348 30.9888193,44.3266913 31.4538072,42.7574373 C31.9098681,41.2183104 32.2556698,39.1842168 32.4870132,36.6617912 C32.5013825,36.5051177 32.5686881,36.3580112 32.6778428,36.2447048 C33.6840814,35.2001936 34.3528394,34.2026874 34.6960705,33.2545759 C33.8115094,33.6956171 33.1565763,34.2957821 32.7169614,35.056292 C32.5932449,35.2703148 32.3647952,35.4021301 32.1175878,35.4021301 L29.9999084,35.4021301 C29.7340243,35.4021301 29.4916311,35.249858 29.3762206,35.0103278 L29.2420986,34.7319624 C26.953471,32.1873374 24.4264816,31.4452613 21.5343537,32.4634928 C23.1157737,34.61405 24.9975856,35.9884108 27.1886335,36.6085575 C27.4866636,36.692911 27.6923993,36.9649594 27.6923993,37.2746971 L27.6923993,47.167745 C27.6923993,47.3687258 27.6050598,47.5597867 27.4530719,47.6912894 L25.3353925,49.5235445 C25.1209775,49.7090602 24.8151167,49.7450846 24.5634669,49.6144622 C22.6315319,48.611664 20.7043641,46.426454 18.7439179,43.0634067 C18.139225,43.2131501 17.3110998,43.2799797 16.2352672,43.2799797 C16.0159408,43.2799797 15.8095876,43.1760519 15.6790145,42.9998284 C14.4845613,41.3877757 13.8018871,39.4322086 13.6272129,37.1479235 L11.5346061,37.9238211 C11.2503526,38.0292167 10.9305905,37.9374091 10.7455436,37.6972717 L9.33384899,35.865299 C9.08175426,35.5381527 9.17033914,35.0644663 9.5236221,34.8505327 C10.7375539,34.1154255 11.3076007,33.5236439 11.3076007,33.2443007 C11.3076007,32.7970873 11.1280268,32.3310623 10.7376581,31.8244669 L5.4437344,24.6792369 C5.18602947,24.3314116 5.30716752,23.8350477 5.69613056,23.6450423 L8.07841975,22.4813123 Z M31.9274773,47.3281457 C33.9797917,45.2709026 35.1693395,42.3420725 35.4842114,38.5569933 C35.4842114,37.1846655 36.238939,36.4011604 37.513364,36.5898819 C38.0746526,36.673137 38.2238731,36.7040873 38.2499501,36.7253218 C38.3090886,36.6266647 38.3915984,36.4453146 38.5364473,36.0943111 C38.5903195,35.9638622 38.5828347,35.8509695 38.5018041,35.6492919 C38.4572374,35.5383696 38.4544821,35.5328125 38.2684887,35.1696482 C37.6517461,33.965418 37.5916879,33.0569756 38.4173421,31.7711892 C39.9900568,29.3216955 41.3076923,24.7972712 41.3076923,20.9696036 C41.3076923,15.2055684 39.6753418,9.24881505 35.919565,4.41569135 L34.551277,6.78355205 C36.3397418,8.96931754 37.2825271,11.9886694 37.3977959,15.8190286 C37.5578753,21.138181 35.0057523,24.903423 32.6266757,24.1981963 C32.4778969,24.15406 31.2573318,23.7599577 30.8205185,23.6320218 C29.2986209,23.1862814 27.9226186,22.9442075 26.4705344,22.9442075 C25.325646,22.9442075 24.6196441,23.0200386 23.5953478,23.2077101 C23.3937939,23.2449052 23.27861,23.2661759 23.190693,23.282092 C22.3696439,23.4307311 21.7940259,23.493884 20.9999084,23.493884 C18.6436694,23.493884 16.0532516,20.8684882 15.2186589,18.0515477 C15.0655262,17.5350136 15.0242667,17.3929059 14.9469046,17.1049395 C14.0441259,13.7445117 14.1904889,10.7830912 16.1895884,7.83520325 C16.9503337,6.71340229 17.9638486,5.66036138 19.248761,4.68312441 L19.248761,2.14730436 C17.1933132,3.2986902 15.1741864,4.85094004 13.1920192,6.80617852 C12.5132495,7.47559106 11.910815,8.1988864 11.3785445,8.97017166 C10.527713,10.2030671 9.88125604,11.5166081 9.38898406,12.8995249 C9.200033,13.4303363 9.04075022,13.9514371 8.89707773,14.4897283 C8.84164535,14.6974143 8.79038164,14.9004543 8.73586411,15.1255217 C8.70725034,15.2436493 8.62429564,15.5929326 8.61405038,15.6354596 C8.25279946,17.1358525 8.72626174,20.9447082 9.59944574,22.4550729 C9.8003268,22.8025412 9.6645902,23.2474674 9.30396104,23.423632 L7.0517955,24.5237976 L11.8422241,30.9896502 C12.4011793,31.7147306 12.6922161,32.4700207 12.6922161,33.2443007 C12.6922161,34.049974 12.0763106,34.8059393 10.8910407,35.6176573 L11.5311735,36.4483652 L13.5240504,35.7094456 C13.7359997,35.630859 13.9729672,35.6606966 14.1588192,35.789372 L14.6881017,36.155823 C14.8647158,36.2781026 14.9745621,36.4754392 14.9854355,36.6899774 C15.0894091,38.7414282 15.6257823,40.4708745 16.5907178,41.8924609 C17.6967644,41.8738857 18.4304138,41.7673533 18.7401319,41.6066831 C19.0710587,41.4350106 19.4785008,41.5562132 19.6617893,41.8808504 C21.4529829,45.0533783 23.1773301,47.1438678 24.7998255,48.1559842 L26.3077839,46.851271 L26.3077839,37.7850734 C23.7719968,36.9333567 21.6300312,35.1717957 19.8919533,32.5252667 C19.658159,32.1692737 19.7981887,31.6886023 20.1865946,31.5138694 C23.9974454,29.7994748 27.4385401,30.6082592 30.3416349,33.8845171 L30.4301152,34.0175147 L31.7349524,34.0175147 C32.5481022,32.8181208 33.7963366,31.9719408 35.4501247,31.4814943 C35.9162623,31.3432567 36.3759467,31.7159692 36.3370506,32.2006144 C36.2096067,33.7885621 35.3683041,35.3954477 33.8433925,37.0278632 C33.6045237,39.5241964 33.2515903,41.5638908 32.7813684,43.1508088 C32.362804,44.5633914 31.942996,45.8356939 31.5220014,46.9672836 L31.9274773,47.3281457 Z M38.2261163,36.7625143 C38.2336658,36.7516111 38.2415735,36.739296 38.2499501,36.7253218 C38.2656884,36.7381374 38.2365719,36.747414 38.2261163,36.7625143 Z" id="Fill-13" fill="#6732FF" fill-rule="nonzero"></path>
        </g>
    </g>
</svg>