<?xml version="1.0" encoding="UTF-8"?>
<svg width="1422px" height="14px" viewBox="0 0 1422 14" version="1.1" xmlns="http://www.w3.org/2000/svg" xmlns:xlink="http://www.w3.org/1999/xlink">
    <!-- Generator: Sketch 51.1 (57501) - http://www.bohemiancoding.com/sketch -->
    <title>line2</title>
    <desc>Created with Sketch.</desc>
    <defs></defs>
    <g id="landing" stroke="none" stroke-width="1" fill="none" fill-rule="evenodd">
        <g id="Heimdall_1440&amp;&lt;" transform="translate(-9.000000, -727.000000)" fill="#6732FF" fill-rule="nonzero">
            <g id="lines" transform="translate(720.000000, 765.000000) scale(-1, -1) translate(-720.000000, -765.000000) translate(-55.000000, 703.000000)">
                <path d="M224,86 L774,86 L774,100 L224,100 L224,86 Z M184,86 L208,86 L208,100 L184,100 L184,86 Z M128,86 L168,86 L168,100 L128,100 L128,86 Z M104,86 L112,86 L112,100 L104,100 L104,86 Z M64,86 L88,86 L88,100 L64,100 L64,86 Z M714,86 L714,100 L730,100 L730,86 L714,86 Z M930,86 L1486,86 L1486,100 L930,100 L930,86 Z M890,86 L914,86 L914,100 L890,100 L890,86 Z M834,86 L874,86 L874,100 L834,100 L834,86 Z M810,86 L818,86 L818,100 L810,100 L810,86 Z M770,86 L794,86 L794,100 L770,100 L770,86 Z M1444,86 L1444,100 L1460,100 L1460,86 L1444,86 Z" id="line2"></path>
            </g>
        </g>
    </g>
</svg>