<?xml version="1.0" encoding="UTF-8"?>
<svg width="1440px" height="16px" viewBox="0 0 1440 16" version="1.1" xmlns="http://www.w3.org/2000/svg" xmlns:xlink="http://www.w3.org/1999/xlink">
    <!-- Generator: Sketch 51.1 (57501) - http://www.bohemiancoding.com/sketch -->
    <title>line3</title>
    <desc>Created with Sketch.</desc>
    <defs></defs>
    <g id="landing" stroke="none" stroke-width="1" fill="none" fill-rule="evenodd">
        <g id="Heimdall_1440&amp;&lt;" transform="translate(0.000000, -757.000000)" fill="#6732FF" fill-rule="nonzero">
            <g id="lines" transform="translate(720.000000, 765.000000) scale(-1, -1) translate(-720.000000, -765.000000) translate(-55.000000, 703.000000)">
                <path d="M196,54 L776,54 L776,70 L196,70 L196,54 Z M92,54 L180,54 L180,70 L92,70 L92,54 Z M28,54 L76,54 L76,70 L28,70 L28,54 Z M0,54 L12,54 L12,70 L0,70 L0,54 Z M670,54 L670,70 L686,70 L686,54 L670,54 Z M950,54 L1550,54 L1550,70 L950,70 L950,54 Z M846,54 L934,54 L934,70 L846,70 L846,54 Z M782,54 L830,54 L830,70 L782,70 L782,54 Z M754,54 L766,54 L766,70 L754,70 L754,54 Z M1424,54 L1424,70 L1440,70 L1440,54 L1424,54 Z" id="line3"></path>
            </g>
        </g>
    </g>
</svg>