<?xml version="1.0" encoding="UTF-8"?>
<svg width="52px" height="52px" viewBox="0 0 52 52" version="1.1" xmlns="http://www.w3.org/2000/svg" xmlns:xlink="http://www.w3.org/1999/xlink">
    <!-- Generator: sketchtool 51.1 (57501) - http://www.bohemiancoding.com/sketch -->
    <title>C79B7927-2BD9-4CF6-AC36-5C3963A34BB8</title>
    <desc>Created with sketchtool.</desc>
    <defs></defs>
    <g id="Symbols" stroke="none" stroke-width="1" fill="none" fill-rule="evenodd">
        <g id="icons/bridge" fill="#FFFFFF" fill-rule="nonzero">
            <path d="M4,40 C4,43.295593 6.7044058,46 10,46 C11.7965515,46 13.3971643,45.17908 14.5,43.914064 C15.6028357,45.17908 17.2034485,46 19,46 C20.7965515,46 22.3971643,45.17908 23.5,43.914064 C24.6028357,45.17908 26.2034485,46 28,46 C29.7965515,46 31.3971643,45.17908 32.5,43.914064 C33.6028357,45.17908 35.203447,46 37,46 C38.79655,46 40.397164,45.17908 41.5,43.914064 C42.602836,45.17908 44.20345,46 46,46 C49.295593,46 52,43.295593 52,40 L52,16 L4,16 L4,40 Z" id="Shape-Copy-2" fill-opacity="0.158514493"></path>
            <path d="M1,7 L1,5 L49,5 L49,7 L1,7 Z M1,5 L49,5 L49,7 L1,7 L1,5 Z M11,27 L9,27 L9,19.5 C9,15.92733 6.07266995,13 2.5,13 L1,13 L1,11 L2.5,11 C7.17723945,11 11,14.8227606 11,19.5 L11,27 Z M35,27 L33,27 L33,21 C33,16.5990024 29.4009976,13 25,13 C20.5990024,13 17,16.5990024 17,21 L17,27 L15,27 L15,21 C15,15.494433 19.494433,11 25,11 C30.505567,11 35,15.494433 35,21 L35,27 Z M49,11 L49,13 L47.5,13 C43.9273299,13 41,15.9273299 41,19.5 L41,27 L39,27 L39,19.5 C39,14.8227605 42.8227603,11 47.5,11 L49,11 Z M7,37 C3.15212143,37 0,33.8478781 0,30 L2,30 C2,32.7433087 4.25669099,35 7,35 C8.43970397,35 9.78578497,34.3586114 10.7462276,33.2569284 L11.5,32.3923081 L12.2537724,33.2569284 C13.214215,34.3586114 14.560296,35 16,35 C17.439704,35 18.785785,34.3586114 19.7462276,33.2569284 L20.5,32.3923081 L21.2537724,33.2569284 C22.214215,34.3586114 23.560296,35 25,35 C26.439704,35 27.785785,34.3586114 28.7462276,33.2569284 L29.5,32.3923081 L30.2537724,33.2569284 C31.2142155,34.3586119 32.5602951,35 34,35 C35.439703,35 36.7857851,34.358611 37.7462277,33.2569283 L38.5,32.3923083 L39.2537723,33.2569283 C40.2142149,34.358611 41.560297,35 43,35 C45.7433083,35 48,32.7433083 48,30 L50,30 C50,33.8478777 46.8478777,37 43,37 C41.326696,37 39.7488273,36.3886357 38.5,35.3188976 C37.2511727,36.3886357 35.673304,37 34,37 C32.3266942,37 30.748827,36.3886362 29.4999999,35.3188979 C28.2511729,36.388636 26.6733049,37 25,37 C23.3266951,37 21.7488271,36.388636 20.5,35.3188978 C19.2511729,36.388636 17.6733049,37 16,37 C14.3266951,37 12.7488271,36.388636 11.5,35.3188978 C10.2511729,36.388636 8.67330489,37 7,37 Z" id="Path"></path>
        </g>
    </g>
</svg>