<?xml version="1.0" encoding="UTF-8"?>
<svg width="24px" height="24px" viewBox="0 0 24 24" version="1.1" xmlns="http://www.w3.org/2000/svg" xmlns:xlink="http://www.w3.org/1999/xlink">
    <!-- Generator: sketchtool 51.1 (57501) - http://www.bohemiancoding.com/sketch -->
    <title>F9CF6471-13BB-43D0-ADBC-A1EA89C16416</title>
    <desc>Created with sketchtool.</desc>
    <defs>
        <polygon id="path-1" points="0 0.000353684211 7.72 0.000353684211 7.72 15.9194147 0 15.9194147"></polygon>
    </defs>
    <g id="Symbols" stroke="none" stroke-width="1" fill="none" fill-rule="evenodd">
        <g id="icons/social/fb">
            <g id="fb" transform="translate(8.000000, 4.000000)">
                <mask id="mask-2" fill="white">
                    <use xlink:href="#path-1"></use>
                </mask>
                <g id="Clip-2"></g>
                <path d="M-8.88888889e-05,5.26494316 L1.65413333,5.26494316 L1.65413333,3.66540632 C1.65413333,2.96069053 1.67191111,1.87222737 2.18657778,1.19845895 C2.72968889,0.485785263 3.47368889,0.000353684211 4.75457778,0.000353684211 C6.84168889,0.000353684211 7.7208,0.296564211 7.7208,0.296564211 L7.30657778,2.73433263 C7.30657778,2.73433263 6.6168,2.53538526 5.97413333,2.53538526 C5.33057778,2.53538526 4.75457778,2.76528 4.75457778,3.40456421 L4.75457778,5.26494316 L7.3928,5.26494316 L7.2088,7.64612211 L4.75457778,7.64612211 L4.75457778,15.91968 L1.65413333,15.91968 L1.65413333,7.64612211 L-8.88888889e-05,7.64612211 L-8.88888889e-05,5.26494316 Z" id="Fill-1" fill="#3864D0" mask="url(#mask-2)"></path>
            </g>
        </g>
    </g>
</svg>