<?xml version="1.0" encoding="utf-8"?>
<!-- Generator: Adobe Illustrator 21.0.2, SVG Export Plug-In . SVG Version: 6.00 Build 0)  -->
<svg version="1.1" id="Слой_1" xmlns="http://www.w3.org/2000/svg" xmlns:xlink="http://www.w3.org/1999/xlink" x="0px" y="0px"
	 viewBox="0 0 24 24" style="enable-background:new 0 0 24 24;" xml:space="preserve">
<style type="text/css">
	.st0{fill:#6732FF;}
</style>
<title>B814C5DE-9496-4DB6-ADE8-AE94966CC806</title>
<desc>Created with sketchtool.</desc>
<g id="Symbols">
	<g id="icons_x2F_social_x2F_git">
		<g id="git" transform="translate(1.000000, 1.000000)">
			<path id="git_stroke" class="st0" d="M11,0C4.9,0,0,4.9,0,11c0,4.8,3.2,8.9,7.5,10.4c0.5,0.1,0.7-0.3,0.7-0.5c0-0.3,0-0.9,0-1.9
				c-3,0.7-3.7-1.5-3.7-1.5c-0.5-1.3-1.2-1.6-1.2-1.6c-1-0.7,0.1-0.7,0.1-0.7C4.4,15.3,5,16.3,5,16.3c1,1.7,2.6,1.2,3.2,0.9
				c0.1-0.7,0.4-1.2,0.7-1.5c-2.4-0.3-5-1.2-5-5.4c0-1.2,0.4-2.2,1.1-3C5,7.2,4.6,6.1,5.2,4.6c0,0,0.9-0.3,3,1.1
				C9.1,5.4,10,5.4,11,5.4c0.9,0,1.9,0.1,2.8,0.3c2.1-1.4,3-1.1,3-1.1c0.6,1.5,0.2,2.6,0.1,2.9c0.7,0.7,1.1,1.7,1.1,3
				c0,4.2-2.6,5.1-5,5.4c0.4,0.3,0.7,1,0.7,2c0,1.5,0,2.6,0,3c0,0.3,0.2,0.6,0.7,0.5C18.9,19.9,22,15.8,22,11C21.9,4.9,17,0,11,0z"
				/>
		</g>
	</g>
</g>
</svg>
