<?xml version="1.0" encoding="UTF-8"?>
<svg width="24px" height="24px" viewBox="0 0 24 24" version="1.1" xmlns="http://www.w3.org/2000/svg" xmlns:xlink="http://www.w3.org/1999/xlink">
    <!-- Generator: sketchtool 51.1 (57501) - http://www.bohemiancoding.com/sketch -->
    <title>B814C5DE-9496-4DB6-ADE8-AE94966CC806</title>
    <desc>Created with sketchtool.</desc>
    <defs></defs>
    <g id="Symbols" stroke="none" stroke-width="1" fill="none" fill-rule="evenodd">
        <g id="icons/social/git" fill="#222222" fill-rule="nonzero">
            <g id="git" transform="translate(1.000000, 1.000000)">
                <path d="M10.9663609,0 C4.91131498,0 0,4.91131498 0,10.9663609 C0,15.8103976 3.16207951,19.9143731 7.46788991,21.3944954 C8.00611621,21.4617737 8.20795107,21.1253823 8.20795107,20.8562691 C8.20795107,20.587156 8.20795107,19.9143731 8.20795107,18.9724771 C5.18042813,19.6452599 4.50764526,17.4923547 4.50764526,17.4923547 C4.03669725,16.2140673 3.29663609,15.8776758 3.29663609,15.8776758 C2.28746177,15.204893 3.36391437,15.204893 3.36391437,15.204893 C4.44036697,15.2721713 5.04587156,16.3486239 5.04587156,16.3486239 C6.05504587,18.030581 7.60244648,17.559633 8.20795107,17.2905199 C8.27522936,16.5504587 8.6116208,16.0795107 8.88073394,15.8103976 C6.4587156,15.5412844 3.90214067,14.5993884 3.90214067,10.3608563 C3.90214067,9.14984709 4.3058104,8.20795107 5.04587156,7.40061162 C4.97859327,7.19877676 4.57492355,6.05504587 5.18042813,4.57492355 C5.18042813,4.57492355 6.12232416,4.3058104 8.20795107,5.71865443 C9.08256881,5.44954128 10.0244648,5.382263 10.9663609,5.382263 C11.9082569,5.382263 12.8501529,5.51681957 13.7247706,5.71865443 C15.8103976,4.3058104 16.7522936,4.57492355 16.7522936,4.57492355 C17.3577982,6.05504587 16.9541284,7.19877676 16.8868502,7.46788991 C17.559633,8.20795107 18.030581,9.21712538 18.030581,10.4281346 C18.030581,14.6666667 15.4740061,15.5412844 13.0519878,15.8103976 C13.4556575,16.146789 13.7920489,16.8195719 13.7920489,17.8287462 C13.7920489,19.3088685 13.7920489,20.4525994 13.7920489,20.8562691 C13.7920489,21.1253823 13.9938838,21.4617737 14.5321101,21.3944954 C18.9051988,19.9143731 22,15.8103976 22,10.9663609 C21.9327217,4.91131498 17.0214067,0 10.9663609,0 Z" id="git_stroke"></path>
            </g>
        </g>
    </g>
</svg>