<?xml version="1.0" encoding="UTF-8"?>
<svg width="24px" height="24px" viewBox="0 0 24 24" version="1.1" xmlns="http://www.w3.org/2000/svg" xmlns:xlink="http://www.w3.org/1999/xlink">
    <!-- Generator: sketchtool 51.1 (57501) - http://www.bohemiancoding.com/sketch -->
    <title>71C03FF1-0E68-41C9-B3F2-1A8ABEC92146</title>
    <desc>Created with sketchtool.</desc>
    <defs></defs>
    <g id="Symbols" stroke="none" stroke-width="1" fill="none" fill-rule="evenodd">
        <g id="icons/social/insta" fill="#FF0FB7">
            <g id="insta" transform="translate(2.000000, 2.000000)">
                <path d="M9.98377778,0.294846316 C7.27266667,0.294846316 6.93155556,0.305793684 5.86711111,0.353962105 C4.80488889,0.402130526 4.07933333,0.567435789 3.44377778,0.811562105 C2.78711111,1.06225684 2.23044444,1.39943579 1.676,1.94570947 C1.12044444,2.49307789 0.779333333,3.04154105 0.523777778,3.68853053 C0.277111111,4.31362526 0.108222222,5.02848842 0.0604444444,6.07505684 C0.0115555556,7.12490947 0.000444444444,7.45989895 0.000444444444,10.1310568 C0.000444444444,12.8033095 0.0115555556,13.1372042 0.0604444444,14.1859621 C0.108222222,15.2336253 0.277111111,15.9484884 0.523777778,16.5746779 C0.779333333,17.2216674 1.12044444,17.7701305 1.676,18.3164042 C2.23044444,18.8637726 2.78711111,19.1998568 3.44377778,19.4516463 C4.07933333,19.6946779 4.80488889,19.8610779 5.86711111,19.9081516 C6.93155556,19.95632 7.27266667,19.9683621 9.98377778,19.9683621 C12.6948889,19.9683621 13.0348889,19.95632 14.1004444,19.9081516 C15.1626667,19.8610779 15.8882222,19.6946779 16.5226667,19.4516463 C17.1804444,19.1998568 17.7371111,18.8637726 18.2915556,18.3164042 C18.8471111,17.7701305 19.1882222,17.2216674 19.4426667,16.5746779 C19.6893333,15.9484884 19.8582222,15.2336253 19.9071111,14.1859621 C19.956,13.1372042 19.9671111,12.8033095 19.9671111,10.1310568 C19.9671111,7.45989895 19.956,7.12490947 19.9071111,6.07505684 C19.8582222,5.02848842 19.6893333,4.31362526 19.4426667,3.68853053 C19.1882222,3.04154105 18.8471111,2.49307789 18.2915556,1.94570947 C17.7371111,1.39943579 17.1804444,1.06225684 16.5226667,0.811562105 C15.8882222,0.567435789 15.1626667,0.402130526 14.1004444,0.353962105 C13.0348889,0.305793684 12.6948889,0.294846316 9.98377778,0.294846316 M9.98377778,2.06722526 C12.6493333,2.06722526 12.9648889,2.07707789 14.0171111,2.12415158 C14.9915556,2.16794105 15.5193333,2.32777263 15.8715556,2.46242526 C16.3371111,2.64196211 16.6704444,2.85434105 17.0193333,3.19808842 C17.3682222,3.54293053 17.5848889,3.87135158 17.766,4.33004632 C17.9026667,4.67707789 18.066,5.19817263 18.1093333,6.15606737 C18.1582222,7.19387789 18.1682222,7.50478316 18.1682222,10.1310568 C18.1682222,12.7573305 18.1582222,13.0682358 18.1093333,14.1060463 C18.066,15.0650358 17.9026667,15.5861305 17.766,15.9320674 C17.5848889,16.3918568 17.3682222,16.7191832 17.0193333,17.0629305 C16.6704444,17.4077726 16.3371111,17.6201516 15.8715556,17.7985937 C15.5193333,17.9332463 14.9915556,18.0941726 14.0171111,18.1379621 C12.9648889,18.1850358 12.6493333,18.1959832 9.98377778,18.1959832 C7.31822222,18.1959832 7.00155556,18.1850358 5.94933333,18.1379621 C4.976,18.0941726 4.44711111,17.9332463 4.096,17.7985937 C3.62933333,17.6201516 3.29711111,17.4077726 2.94711111,17.0629305 C2.59822222,16.7191832 2.38155556,16.3918568 2.20044444,15.9320674 C2.06377778,15.5861305 1.90155556,15.0650358 1.85711111,14.1060463 C1.80933333,13.0682358 1.79933333,12.7573305 1.79933333,10.1310568 C1.79933333,7.50478316 1.80933333,7.19387789 1.85711111,6.15606737 C1.90155556,5.19817263 2.06377778,4.67707789 2.20044444,4.33004632 C2.38155556,3.87135158 2.59822222,3.54293053 2.94711111,3.19808842 C3.29711111,2.85434105 3.62933333,2.64196211 4.096,2.46242526 C4.44711111,2.32777263 4.976,2.16794105 5.94933333,2.12415158 C7.00155556,2.07707789 7.31822222,2.06722526 9.98377778,2.06722526" id="Fill-1"></path>
                <path d="M9.98377778,13.4103411 C8.146,13.4103411 6.656,11.9422989 6.656,10.1316042 C6.656,8.32090947 8.146,6.85286737 9.98377778,6.85286737 C11.8215556,6.85286737 13.3115556,8.32090947 13.3115556,10.1316042 C13.3115556,11.9422989 11.8215556,13.4103411 9.98377778,13.4103411 M9.98377778,5.08048842 C7.15266667,5.08048842 4.85711111,7.34112 4.85711111,10.1316042 C4.85711111,12.9209937 7.15266667,15.1816253 9.98377778,15.1816253 C12.8148889,15.1816253 15.1104444,12.9209937 15.1104444,10.1316042 C15.1104444,7.34112 12.8148889,5.08048842 9.98377778,5.08048842" id="Fill-4"></path>
                <path d="M16.511,4.88015158 C16.511,5.53261474 15.9743333,6.06027789 15.3132222,6.06027789 C14.651,6.06027789 14.1143333,5.53261474 14.1143333,4.88015158 C14.1143333,4.22878316 14.651,3.70002526 15.3132222,3.70002526 C15.9743333,3.70002526 16.511,4.22878316 16.511,4.88015158" id="Fill-6"></path>
            </g>
        </g>
    </g>
</svg>