<?xml version="1.0" encoding="UTF-8"?>
<svg width="1440px" height="124px" viewBox="0 0 1440 124" version="1.1" xmlns="http://www.w3.org/2000/svg" xmlns:xlink="http://www.w3.org/1999/xlink">
    <!-- Generator: sketchtool 51.1 (57501) - http://www.bohemiancoding.com/sketch -->
    <title>CC8745AF-78AB-445F-B2D2-C8AFF3B0C336</title>
    <desc>Created with sketchtool.</desc>
    <defs></defs>
    <g id="landing" stroke="none" stroke-width="1" fill="none" fill-rule="evenodd">
        <g id="Heimdall_1440&amp;&lt;" transform="translate(0.000000, -703.000000)" fill="#6732FF" fill-rule="nonzero">
            <g id="lines" transform="translate(720.000000, 765.000000) scale(-1, -1) translate(-720.000000, -765.000000) translate(-55.000000, 703.000000)">
                <path d="M1028,116 L1418,116 L1418,124 L1028,124 L1028,116 Z M897,116 L1000,116 L1000,124 L897,124 L897,116 Z M842,116 L869,116 L869,124 L842,124 L842,116 Z M759,116 L814,116 L814,124 L759,124 L759,116 Z M718,116 L732,116 L732,124 L718,124 L718,116 Z M1288,116 L1288,124 L1304,124 L1304,116 L1288,116 Z" id="Blue" transform="translate(1068.000000, 120.000000) scale(-1, 1) translate(-1068.000000, -120.000000) "></path>
                <path d="M930,86 L1486,86 L1486,100 L930,100 L930,86 Z M890,86 L914,86 L914,100 L890,100 L890,86 Z M834,86 L874,86 L874,100 L834,100 L834,86 Z M810,86 L818,86 L818,100 L810,100 L810,86 Z M770,86 L794,86 L794,100 L770,100 L770,86 Z M1444,86 L1444,100 L1460,100 L1460,86 L1444,86 Z" id="line1" transform="translate(1128.000000, 93.000000) scale(-1, 1) translate(-1128.000000, -93.000000) "></path>
                <path d="M950,54 L1550,54 L1550,70 L950,70 L950,54 Z M846,54 L934,54 L934,70 L846,70 L846,54 Z M782,54 L830,54 L830,70 L782,70 L782,54 Z M754,54 L766,54 L766,70 L754,70 L754,54 Z M1424,54 L1424,70 L1440,70 L1440,54 L1424,54 Z" id="line8" transform="translate(1152.000000, 62.000000) scale(-1, 1) translate(-1152.000000, -62.000000) "></path>
                <path d="M911,24 L1466,24 L1466,38 L911,38 L911,24 Z M847,24 L895,24 L895,38 L847,38 L847,24 Z M799,24 L831,24 L831,38 L799,38 L799,24 Z M767,24 L783,24 L783,38 L767,38 L767,24 Z" id="line14" transform="translate(1116.500000, 31.000000) scale(-1, 1) translate(-1116.500000, -31.000000) "></path>
                <path d="M900,0 L1500,0 L1500,8 L900,8 L900,0 Z M804,0 L884,0 L884,8 L804,8 L804,0 Z M780,0 L788,0 L788,8 L780,8 L780,0 Z M732,0 L764,0 L764,8 L732,8 L732,0 Z M1383,0 L1383,8 L1399,8 L1399,0 L1383,0 Z M1414,0 L1414,8 L1430,8 L1430,0 L1414,0 Z" id="line19" transform="translate(1116.000000, 4.000000) scale(-1, 1) translate(-1116.000000, -4.000000) "></path>
                <path d="M442,116 L832,116 L832,124 L442,124 L442,116 Z M311,116 L414,116 L414,124 L311,124 L311,116 Z M256,116 L283,116 L283,124 L256,124 L256,116 Z M173,116 L228,116 L228,124 L173,124 L173,116 Z M132,116 L146,116 L146,124 L132,124 L132,116 Z M683,116 L683,124 L699,124 L699,116 L683,116 Z" id="line26"></path>
                <path d="M224,86 L774,86 L774,100 L224,100 L224,86 Z M184,86 L208,86 L208,100 L184,100 L184,86 Z M128,86 L168,86 L168,100 L128,100 L128,86 Z M104,86 L112,86 L112,100 L104,100 L104,86 Z M64,86 L88,86 L88,100 L64,100 L64,86 Z M714,86 L714,100 L730,100 L730,86 L714,86 Z" id="line33"></path>
                <path d="M196,54 L776,54 L776,70 L196,70 L196,54 Z M92,54 L180,54 L180,70 L92,70 L92,54 Z M28,54 L76,54 L76,70 L28,70 L28,54 Z M0,54 L12,54 L12,70 L0,70 L0,54 Z M670,54 L670,70 L686,70 L686,54 L670,54 Z" id="line40"></path>
                <path d="M228,24 L778,24 L778,38 L228,38 L228,24 Z M164,24 L212,24 L212,38 L164,38 L164,24 Z M116,24 L148,24 L148,38 L116,38 L116,24 Z M84,24 L100,24 L100,38 L84,38 L84,24 Z M744,24 L744,38 L760,38 L760,24 L744,24 Z" id="line46"></path>
                <path d="M218,0 L778,0 L778,8 L218,8 L218,0 Z M122,0 L202,0 L202,8 L122,8 L122,0 Z M98,0 L106,0 L106,8 L98,8 L98,0 Z M50,0 L82,0 L82,8 L50,8 L50,0 Z M700,0 L700,8 L716,8 L716,0 L700,0 Z" id="line52"></path>
            </g>
        </g>
    </g>
</svg>