<?xml version="1.0" encoding="UTF-8"?>
<svg width="1440px" height="368px" viewBox="0 0 1440 368" version="1.1" xmlns="http://www.w3.org/2000/svg" xmlns:xlink="http://www.w3.org/1999/xlink">
    <!-- Generator: sketchtool 51.1 (57501) - http://www.bohemiancoding.com/sketch -->
    <title>CB7ABBEF-E5F5-49AA-BD3F-F3A15FF14167</title>
    <desc>Created with sketchtool.</desc>
    <defs></defs>
    <g id="landing" stroke="none" stroke-width="1" fill="none" fill-rule="evenodd" opacity="0.044911">
        <g id="Heimdall_1440&amp;&lt;" transform="translate(0.000000, -3183.000000)" fill="#F2EEFF" fill-rule="nonzero">
            <g id="Open-Sorce" transform="translate(-5.000000, 3183.000000)">
                <g id="lines_purpule_block" transform="translate(725.000000, 184.000000) scale(-1, -1) translate(-725.000000, -184.000000) ">
                    <g id="Group-18" transform="translate(82.000000, 360.000000)">
                        <path d="M896,0 L1286,0 L1286,8 L896,8 L896,0 Z M765,0 L868,0 L868,8 L765,8 L765,0 Z M710,0 L737,0 L737,8 L710,8 L710,0 Z M627,0 L682,0 L682,8 L627,8 L627,0 Z M586,0 L600,0 L600,8 L586,8 L586,0 Z M1156,0 L1156,8 L1172,8 L1172,0 L1156,0 Z" id="Blue" transform="translate(936.000000, 4.000000) scale(-1, 1) translate(-936.000000, -4.000000) "></path>
                        <path d="M310,0 L700,0 L700,8 L310,8 L310,0 Z M179,0 L282,0 L282,8 L179,8 L179,0 Z M124,0 L151,0 L151,8 L124,8 L124,0 Z M41,0 L96,0 L96,8 L41,8 L41,0 Z M0,0 L14,0 L14,8 L0,8 L0,0 Z M551,0 L551,8 L567,8 L567,0 L551,0 Z" id="line26"></path>
                    </g>
                    <g id="Group-18-Copy" transform="translate(82.000000, 312.000000)">
                        <path d="M896,0 L1286,0 L1286,8 L896,8 L896,0 Z M765,0 L868,0 L868,8 L765,8 L765,0 Z M710,0 L737,0 L737,8 L710,8 L710,0 Z M627,0 L682,0 L682,8 L627,8 L627,0 Z M586,0 L600,0 L600,8 L586,8 L586,0 Z M1156,0 L1156,8 L1172,8 L1172,0 L1156,0 Z" id="Blue" transform="translate(936.000000, 4.000000) scale(-1, 1) translate(-936.000000, -4.000000) "></path>
                        <path d="M310,0 L700,0 L700,8 L310,8 L310,0 Z M179,0 L282,0 L282,8 L179,8 L179,0 Z M124,0 L151,0 L151,8 L124,8 L124,0 Z M41,0 L96,0 L96,8 L41,8 L41,0 Z M0,0 L14,0 L14,8 L0,8 L0,0 Z M551,0 L551,8 L567,8 L567,0 L551,0 Z" id="line26"></path>
                    </g>
                    <g id="Group-18-Copy-2" transform="translate(82.000000, 264.000000)">
                        <path d="M896,0 L1286,0 L1286,8 L896,8 L896,0 Z M765,0 L868,0 L868,8 L765,8 L765,0 Z M710,0 L737,0 L737,8 L710,8 L710,0 Z M627,0 L682,0 L682,8 L627,8 L627,0 Z M586,0 L600,0 L600,8 L586,8 L586,0 Z M1156,0 L1156,8 L1172,8 L1172,0 L1156,0 Z" id="Blue" transform="translate(936.000000, 4.000000) scale(-1, 1) translate(-936.000000, -4.000000) "></path>
                        <path d="M310,0 L700,0 L700,8 L310,8 L310,0 Z M179,0 L282,0 L282,8 L179,8 L179,0 Z M124,0 L151,0 L151,8 L124,8 L124,0 Z M41,0 L96,0 L96,8 L41,8 L41,0 Z M0,0 L14,0 L14,8 L0,8 L0,0 Z M551,0 L551,8 L567,8 L567,0 L551,0 Z" id="line26"></path>
                    </g>
                    <g id="Group-18-Copy-3" transform="translate(82.000000, 216.000000)">
                        <path d="M896,0 L1286,0 L1286,8 L896,8 L896,0 Z M765,0 L868,0 L868,8 L765,8 L765,0 Z M710,0 L737,0 L737,8 L710,8 L710,0 Z M627,0 L682,0 L682,8 L627,8 L627,0 Z M586,0 L600,0 L600,8 L586,8 L586,0 Z M1156,0 L1156,8 L1172,8 L1172,0 L1156,0 Z" id="Blue" transform="translate(936.000000, 4.000000) scale(-1, 1) translate(-936.000000, -4.000000) "></path>
                        <path d="M310,0 L700,0 L700,8 L310,8 L310,0 Z M179,0 L282,0 L282,8 L179,8 L179,0 Z M124,0 L151,0 L151,8 L124,8 L124,0 Z M41,0 L96,0 L96,8 L41,8 L41,0 Z M0,0 L14,0 L14,8 L0,8 L0,0 Z M551,0 L551,8 L567,8 L567,0 L551,0 Z" id="line26"></path>
                    </g>
                    <g id="Group-12" transform="translate(0.000000, 336.000000)">
                        <path d="M850,0 L1450,0 L1450,8 L850,8 L850,0 Z M754,0 L834,0 L834,8 L754,8 L754,0 Z M730,0 L738,0 L738,8 L730,8 L730,0 Z M682,0 L714,0 L714,8 L682,8 L682,0 Z M1333,0 L1333,8 L1349,8 L1349,0 L1333,0 Z M1364,0 L1364,8 L1380,8 L1380,0 L1364,0 Z" id="line19" transform="translate(1066.000000, 4.000000) scale(-1, 1) translate(-1066.000000, -4.000000) "></path>
                        <path d="M168,0 L728,0 L728,8 L168,8 L168,0 Z M72,0 L152,0 L152,8 L72,8 L72,0 Z M48,0 L56,0 L56,8 L48,8 L48,0 Z M0,0 L32,0 L32,8 L0,8 L0,0 Z M650,0 L650,8 L666,8 L666,0 L650,0 Z" id="line52"></path>
                    </g>
                    <g id="Group-12-Copy" transform="translate(0.000000, 288.000000)">
                        <path d="M850,0 L1450,0 L1450,8 L850,8 L850,0 Z M754,0 L834,0 L834,8 L754,8 L754,0 Z M730,0 L738,0 L738,8 L730,8 L730,0 Z M682,0 L714,0 L714,8 L682,8 L682,0 Z M1333,0 L1333,8 L1349,8 L1349,0 L1333,0 Z M1364,0 L1364,8 L1380,8 L1380,0 L1364,0 Z" id="line19" transform="translate(1066.000000, 4.000000) scale(-1, 1) translate(-1066.000000, -4.000000) "></path>
                        <path d="M168,0 L728,0 L728,8 L168,8 L168,0 Z M72,0 L152,0 L152,8 L72,8 L72,0 Z M48,0 L56,0 L56,8 L48,8 L48,0 Z M0,0 L32,0 L32,8 L0,8 L0,0 Z M650,0 L650,8 L666,8 L666,0 L650,0 Z" id="line52"></path>
                    </g>
                    <g id="Group-12-Copy-2" transform="translate(0.000000, 240.000000)">
                        <path d="M850,0 L1450,0 L1450,8 L850,8 L850,0 Z M754,0 L834,0 L834,8 L754,8 L754,0 Z M730,0 L738,0 L738,8 L730,8 L730,0 Z M682,0 L714,0 L714,8 L682,8 L682,0 Z M1333,0 L1333,8 L1349,8 L1349,0 L1333,0 Z M1364,0 L1364,8 L1380,8 L1380,0 L1364,0 Z" id="line19" transform="translate(1066.000000, 4.000000) scale(-1, 1) translate(-1066.000000, -4.000000) "></path>
                        <path d="M168,0 L728,0 L728,8 L168,8 L168,0 Z M72,0 L152,0 L152,8 L72,8 L72,0 Z M48,0 L56,0 L56,8 L48,8 L48,0 Z M0,0 L32,0 L32,8 L0,8 L0,0 Z M650,0 L650,8 L666,8 L666,0 L650,0 Z" id="line52"></path>
                    </g>
                    <g id="Group-12-Copy-3" transform="translate(0.000000, 192.000000)">
                        <path d="M850,0 L1450,0 L1450,8 L850,8 L850,0 Z M754,0 L834,0 L834,8 L754,8 L754,0 Z M730,0 L738,0 L738,8 L730,8 L730,0 Z M682,0 L714,0 L714,8 L682,8 L682,0 Z M1333,0 L1333,8 L1349,8 L1349,0 L1333,0 Z M1364,0 L1364,8 L1380,8 L1380,0 L1364,0 Z" id="line19" transform="translate(1066.000000, 4.000000) scale(-1, 1) translate(-1066.000000, -4.000000) "></path>
                        <path d="M168,0 L728,0 L728,8 L168,8 L168,0 Z M72,0 L152,0 L152,8 L72,8 L72,0 Z M48,0 L56,0 L56,8 L48,8 L48,0 Z M0,0 L32,0 L32,8 L0,8 L0,0 Z M650,0 L650,8 L666,8 L666,0 L650,0 Z" id="line52"></path>
                    </g>
                    <g id="Group-18-Copy-7" transform="translate(82.000000, 168.000000)">
                        <path d="M896,0 L1286,0 L1286,8 L896,8 L896,0 Z M765,0 L868,0 L868,8 L765,8 L765,0 Z M710,0 L737,0 L737,8 L710,8 L710,0 Z M627,0 L682,0 L682,8 L627,8 L627,0 Z M586,0 L600,0 L600,8 L586,8 L586,0 Z M1156,0 L1156,8 L1172,8 L1172,0 L1156,0 Z" id="Blue" transform="translate(936.000000, 4.000000) scale(-1, 1) translate(-936.000000, -4.000000) "></path>
                        <path d="M310,0 L700,0 L700,8 L310,8 L310,0 Z M179,0 L282,0 L282,8 L179,8 L179,0 Z M124,0 L151,0 L151,8 L124,8 L124,0 Z M41,0 L96,0 L96,8 L41,8 L41,0 Z M0,0 L14,0 L14,8 L0,8 L0,0 Z M551,0 L551,8 L567,8 L567,0 L551,0 Z" id="line26"></path>
                    </g>
                    <g id="Group-18-Copy-6" transform="translate(82.000000, 120.000000)">
                        <path d="M896,0 L1286,0 L1286,8 L896,8 L896,0 Z M765,0 L868,0 L868,8 L765,8 L765,0 Z M710,0 L737,0 L737,8 L710,8 L710,0 Z M627,0 L682,0 L682,8 L627,8 L627,0 Z M586,0 L600,0 L600,8 L586,8 L586,0 Z M1156,0 L1156,8 L1172,8 L1172,0 L1156,0 Z" id="Blue" transform="translate(936.000000, 4.000000) scale(-1, 1) translate(-936.000000, -4.000000) "></path>
                        <path d="M310,0 L700,0 L700,8 L310,8 L310,0 Z M179,0 L282,0 L282,8 L179,8 L179,0 Z M124,0 L151,0 L151,8 L124,8 L124,0 Z M41,0 L96,0 L96,8 L41,8 L41,0 Z M0,0 L14,0 L14,8 L0,8 L0,0 Z M551,0 L551,8 L567,8 L567,0 L551,0 Z" id="line26"></path>
                    </g>
                    <g id="Group-18-Copy-5" transform="translate(82.000000, 72.000000)">
                        <path d="M896,0 L1286,0 L1286,8 L896,8 L896,0 Z M765,0 L868,0 L868,8 L765,8 L765,0 Z M710,0 L737,0 L737,8 L710,8 L710,0 Z M627,0 L682,0 L682,8 L627,8 L627,0 Z M586,0 L600,0 L600,8 L586,8 L586,0 Z M1156,0 L1156,8 L1172,8 L1172,0 L1156,0 Z" id="Blue" transform="translate(936.000000, 4.000000) scale(-1, 1) translate(-936.000000, -4.000000) "></path>
                        <path d="M310,0 L700,0 L700,8 L310,8 L310,0 Z M179,0 L282,0 L282,8 L179,8 L179,0 Z M124,0 L151,0 L151,8 L124,8 L124,0 Z M41,0 L96,0 L96,8 L41,8 L41,0 Z M0,0 L14,0 L14,8 L0,8 L0,0 Z M551,0 L551,8 L567,8 L567,0 L551,0 Z" id="line26"></path>
                    </g>
                    <g id="Group-18-Copy-4" transform="translate(82.000000, 24.000000)">
                        <path d="M896,0 L1286,0 L1286,8 L896,8 L896,0 Z M765,0 L868,0 L868,8 L765,8 L765,0 Z M710,0 L737,0 L737,8 L710,8 L710,0 Z M627,0 L682,0 L682,8 L627,8 L627,0 Z M586,0 L600,0 L600,8 L586,8 L586,0 Z M1156,0 L1156,8 L1172,8 L1172,0 L1156,0 Z" id="Blue" transform="translate(936.000000, 4.000000) scale(-1, 1) translate(-936.000000, -4.000000) "></path>
                        <path d="M310,0 L700,0 L700,8 L310,8 L310,0 Z M179,0 L282,0 L282,8 L179,8 L179,0 Z M124,0 L151,0 L151,8 L124,8 L124,0 Z M41,0 L96,0 L96,8 L41,8 L41,0 Z M0,0 L14,0 L14,8 L0,8 L0,0 Z M551,0 L551,8 L567,8 L567,0 L551,0 Z" id="line26"></path>
                    </g>
                    <g id="Group-12-Copy-7" transform="translate(0.000000, 144.000000)">
                        <path d="M850,0 L1450,0 L1450,8 L850,8 L850,0 Z M754,0 L834,0 L834,8 L754,8 L754,0 Z M730,0 L738,0 L738,8 L730,8 L730,0 Z M682,0 L714,0 L714,8 L682,8 L682,0 Z M1333,0 L1333,8 L1349,8 L1349,0 L1333,0 Z M1364,0 L1364,8 L1380,8 L1380,0 L1364,0 Z" id="line19" transform="translate(1066.000000, 4.000000) scale(-1, 1) translate(-1066.000000, -4.000000) "></path>
                        <path d="M168,0 L728,0 L728,8 L168,8 L168,0 Z M72,0 L152,0 L152,8 L72,8 L72,0 Z M48,0 L56,0 L56,8 L48,8 L48,0 Z M0,0 L32,0 L32,8 L0,8 L0,0 Z M650,0 L650,8 L666,8 L666,0 L650,0 Z" id="line52"></path>
                    </g>
                    <g id="Group-12-Copy-6" transform="translate(0.000000, 96.000000)">
                        <path d="M850,0 L1450,0 L1450,8 L850,8 L850,0 Z M754,0 L834,0 L834,8 L754,8 L754,0 Z M730,0 L738,0 L738,8 L730,8 L730,0 Z M682,0 L714,0 L714,8 L682,8 L682,0 Z M1333,0 L1333,8 L1349,8 L1349,0 L1333,0 Z M1364,0 L1364,8 L1380,8 L1380,0 L1364,0 Z" id="line19" transform="translate(1066.000000, 4.000000) scale(-1, 1) translate(-1066.000000, -4.000000) "></path>
                        <path d="M168,0 L728,0 L728,8 L168,8 L168,0 Z M72,0 L152,0 L152,8 L72,8 L72,0 Z M48,0 L56,0 L56,8 L48,8 L48,0 Z M0,0 L32,0 L32,8 L0,8 L0,0 Z M650,0 L650,8 L666,8 L666,0 L650,0 Z" id="line52"></path>
                    </g>
                    <g id="Group-12-Copy-5" transform="translate(0.000000, 48.000000)">
                        <path d="M850,0 L1450,0 L1450,8 L850,8 L850,0 Z M754,0 L834,0 L834,8 L754,8 L754,0 Z M730,0 L738,0 L738,8 L730,8 L730,0 Z M682,0 L714,0 L714,8 L682,8 L682,0 Z M1333,0 L1333,8 L1349,8 L1349,0 L1333,0 Z M1364,0 L1364,8 L1380,8 L1380,0 L1364,0 Z" id="line19" transform="translate(1066.000000, 4.000000) scale(-1, 1) translate(-1066.000000, -4.000000) "></path>
                        <path d="M168,0 L728,0 L728,8 L168,8 L168,0 Z M72,0 L152,0 L152,8 L72,8 L72,0 Z M48,0 L56,0 L56,8 L48,8 L48,0 Z M0,0 L32,0 L32,8 L0,8 L0,0 Z M650,0 L650,8 L666,8 L666,0 L650,0 Z" id="line52"></path>
                    </g>
                    <g id="Group-12-Copy-4">
                        <path d="M850,0 L1450,0 L1450,8 L850,8 L850,0 Z M754,0 L834,0 L834,8 L754,8 L754,0 Z M730,0 L738,0 L738,8 L730,8 L730,0 Z M682,0 L714,0 L714,8 L682,8 L682,0 Z M1333,0 L1333,8 L1349,8 L1349,0 L1333,0 Z M1364,0 L1364,8 L1380,8 L1380,0 L1364,0 Z" id="line19" transform="translate(1066.000000, 4.000000) scale(-1, 1) translate(-1066.000000, -4.000000) "></path>
                        <path d="M168,0 L728,0 L728,8 L168,8 L168,0 Z M72,0 L152,0 L152,8 L72,8 L72,0 Z M48,0 L56,0 L56,8 L48,8 L48,0 Z M0,0 L32,0 L32,8 L0,8 L0,0 Z M650,0 L650,8 L666,8 L666,0 L650,0 Z" id="line52"></path>
                    </g>
                </g>
            </g>
        </g>
    </g>
</svg>