<?xml version="1.0" encoding="UTF-8"?>
<svg width="170px" height="56px" viewBox="0 0 170 56" version="1.1" xmlns="http://www.w3.org/2000/svg" xmlns:xlink="http://www.w3.org/1999/xlink">
    <!-- Generator: sketchtool 51.1 (57501) - http://www.bohemiancoding.com/sketch -->
    <title>13E0FEA3-C867-4663-A282-4E542EE6A8EA</title>
    <desc>Created with sketchtool.</desc>
    <defs></defs>
    <g id="Symbols" stroke="none" stroke-width="1" fill="none" fill-rule="evenodd">
        <g id="heildall-logo">
            <g>
                <polygon id="Fill-1" fill="#292929" points="59.3788477 20.7731969 62.5760954 20.7731969 62.5760954 26.295736 68.7859303 26.295736 68.7859303 20.7731969 71.983178 20.7731969 71.983178 35.5837006 68.7859303 35.5837006 68.7859303 29.1824455 62.5760954 29.1824455 62.5760954 35.5837006 59.3788477 35.5837006"></polygon>
                <polygon id="Fill-2" fill="#292929" points="75.876833 20.7731969 85.7349615 20.7731969 85.7349615 23.7856646 79.0740807 23.7856646 79.0740807 26.5469342 85.3659523 26.5469342 85.3659523 29.5590835 79.0740807 29.5590835 79.0740807 32.5715513 86.1039706 32.5715513 86.1039706 35.5837006 75.876833 35.5837006"></polygon>
                <polygon id="Fill-3" fill="#292929" points="89.4440183 35.5835414 92.6412661 35.5835414 92.6412661 20.7730377 89.4440183 20.7730377"></polygon>
                <polygon id="Fill-4" fill="#292929" points="96.3713156 20.7731969 101.20805 20.7731969 104.548783 30.4374812 104.589646 30.4374812 107.950967 20.7731969 112.767114 20.7731969 112.767114 35.5837006 109.569866 35.5837006 109.569866 24.2247042 109.529004 24.2247042 105.716949 35.5837006 103.277994 35.5837006 99.6094257 24.2247042 99.5685633 24.2247042 99.5685633 35.5837006 96.3713156 35.5837006"></polygon>
                <path d="M119.734961,32.5714239 L121.395035,32.5714239 C122.132741,32.5714239 122.819292,32.4950138 123.454686,32.3412385 C124.090081,32.1877816 124.639695,31.9333997 125.104466,31.5777744 C125.568925,31.2221491 125.934503,30.7550924 126.200888,30.176286 C126.467273,29.5974796 126.600778,28.8897311 126.600778,28.0530407 C126.600778,27.3277816 126.467273,26.6967616 126.200888,26.1596624 C125.934503,25.6231999 125.576099,25.1803397 125.125053,24.8314003 C124.674007,24.4830977 124.144356,24.2213931 123.536723,24.0472418 C122.928466,23.8727721 122.28964,23.7855372 121.620558,23.7855372 L119.734961,23.7855372 L119.734961,32.5714239 Z M116.537714,20.7730695 L121.333585,20.7730695 C122.494576,20.7730695 123.598172,20.905832 124.643439,21.1707203 C125.688705,21.4356086 126.600778,21.8644603 127.379659,22.4569568 C128.158228,23.0500901 128.776466,23.8205585 129.234374,24.7686804 C129.691971,25.717439 129.920925,26.8677292 129.920925,28.2201877 C129.920925,29.4198261 129.698521,30.4761956 129.25465,31.3892962 C128.810778,32.3030335 128.212503,33.0699997 127.461383,33.6905133 C126.709952,34.3110269 125.842484,34.7815857 124.858668,35.1025081 C123.874851,35.4234305 122.842998,35.5835733 121.764044,35.5835733 L116.537714,35.5835733 L116.537714,20.7730695 Z" id="Fill-5" fill="#292929"></path>
                <path d="M138.917917,25.0824393 L137.15522,29.6845553 L140.70089,29.6845553 L138.917917,25.0824393 Z M137.687991,20.7732287 L140.331881,20.7732287 L146.644339,35.5834141 L143.03722,35.5834141 L141.787018,32.4458248 L136.151128,32.4458248 L134.941789,35.5834141 L131.416706,35.5834141 L137.687991,20.7732287 Z" id="Fill-7" fill="#292929"></path>
                <polygon id="Fill-9" fill="#292929" points="149.042057 20.7731969 152.239305 20.7731969 152.239305 32.5715513 158.162167 32.5715513 158.162167 35.5837006 149.042057 35.5837006"></polygon>
                <polygon id="Fill-11" fill="#292929" points="160.867382 20.7731969 164.064629 20.7731969 164.064629 32.5715513 169.987492 32.5715513 169.987492 35.5837006 160.867382 35.5837006"></polygon>
                <g id="znak" transform="translate(0.000000, 0.006368)" fill="#6732FF">
                    <path d="M29.4449982,53.6157492 C32.2492183,51.1365602 33.8515853,47.4863866 34.252411,42.6655468 C34.252411,41.563968 34.7196771,41.0819477 35.6545211,41.2194859 C37.0566312,41.4261115 37.0566312,41.6327371 37.6574018,40.1863578 C38.2584844,38.7402969 35.854778,37.9141128 37.457145,35.4349238 C39.0595119,32.9554164 40.8624477,27.7904128 40.8624477,22.8320349 C40.8624477,17.8733385 39.6605945,9.60926905 33.8515853,2.79126053 L31.4481908,6.92345444 C33.5845761,9.2647869 34.7196771,12.6395658 34.8531817,17.0471544 C35.0534385,23.6582189 31.8487046,26.1374079 30.4465945,25.7244751 C29.0444844,25.3112238 26.4405211,24.2780958 23.2354752,24.2780958 C20.0307413,24.2780958 19.4296587,24.8979726 17.0259523,24.8979726 C14.6222459,24.8979726 12.0182826,22.0055324 11.217255,19.3193994 C10.4159156,16.6339032 8.41272294,10.2291459 15.8240991,4.85751667 L15.8240991,0.312071536 C13.0198789,1.68936338 10.282411,3.68653207 7.61169541,6.30389597 C3.60562202,10.2291459 2.60402569,14.9808983 2.2032,16.6339032 C1.80268624,18.2865897 2.2032,22.8320349 3.40536514,24.8979726 L6.23853245e-05,26.5506592 L6.00901651,34.6084214 C6.54334679,35.2970673 6.81035596,35.9857132 6.81035596,36.6743591 C6.81035596,37.363005 6.00901651,38.1895075 4.40664954,39.1535481 L6.00901651,41.2194859 L8.81354862,40.1863578 L9.41431927,40.599609 C9.54782385,43.2166546 10.282411,45.4204489 11.6177688,47.2109919 C13.2201358,47.2109919 14.2884844,47.0731354 14.8228147,46.7977407 C17.0927046,50.7920781 19.2961541,53.3403545 21.4328514,54.4422517 L23.8365578,52.3759955 L23.8365578,41.2194859 C20.8985211,40.3933018 18.4280624,38.4649022 16.4251817,35.4349238 C20.431255,33.6443807 23.9700624,34.4705648 27.0412917,37.9141128 L27.2415486,38.3270457 L29.645255,38.3270457 C30.4465945,36.9497538 31.7819523,35.9857132 33.6513284,35.4349238 C33.5178239,37.0876104 32.5832917,38.809066 30.8471083,40.599609 C30.5800991,43.4920493 30.1792734,45.8337001 29.645255,47.6242432 C29.1112367,49.4147862 28.5769064,50.9987037 28.0428881,52.3759955 L29.4449982,53.6157492 Z" id="Fill-13"></path>
                </g>
            </g>
        </g>
    </g>
</svg>