<?xml version="1.0" encoding="UTF-8"?>
<svg width="64px" height="112px" viewBox="0 0 64 112" version="1.1" xmlns="http://www.w3.org/2000/svg" xmlns:xlink="http://www.w3.org/1999/xlink">
    <!-- Generator: sketchtool 51.1 (57501) - http://www.bohemiancoding.com/sketch -->
    <title>B806EF2E-60E3-4064-9664-02EE72DB514F</title>
    <desc>Created with sketchtool.</desc>
    <defs></defs>
    <g id="landing" stroke="none" stroke-width="1" fill="none" fill-rule="evenodd">
        <g id="Heimdall_1440&amp;&lt;" transform="translate(-388.000000, -3783.000000)">
            <g id="footer" transform="translate(173.000000, 3673.000000)">
                <g id="who-made">
                    <g id="MDlogo" transform="translate(215.000000, 110.000000)">
                        <path d="M51.5685497,67.923129 L46.0052208,67.923129 C45.2578458,67.923129 44.6519787,68.5294695 44.6519787,69.2774283 L44.6519787,89.1379777 C44.6519787,89.8859366 45.2578458,90.4922771 46.0052208,90.4922771 L51.5685497,90.4922771 C59.8659288,90.4922771 64.0459434,85.9779459 64.0459434,79.2541003 C64.0459434,72.5302548 59.8659288,67.923129 51.5685497,67.923129 Z M53.3227524,83.6229697 L51.8742821,83.6229697 C51.3760321,83.6229697 50.9721207,83.2187428 50.9721207,82.7201035 L50.9721207,75.597492 C50.9721207,75.0988528 51.3760321,74.6946258 51.8742821,74.6946258 L53.2275243,74.6946258 C55.1295813,74.6946258 56.3850893,76.2871815 56.3850893,79.2541003 C56.3850893,82.2210191 55.2373395,83.6254777 53.3352824,83.6254777 L53.3227524,83.6229697 Z" id="Shape" fill="#000000" fill-rule="nonzero"></path>
                        <path d="M1.35324214,90.4922771 L5.41296857,90.4922771 C6.16034357,90.4922771 6.76621071,89.8859366 6.76621071,89.1379777 L6.76621071,82.817914 L8.80108594,87.0262739 C9.03126622,87.49062 9.50609012,87.782748 10.0240159,87.7786624 L10.079148,87.7786624 C10.5787385,87.7815079 11.039254,87.5086466 11.2770179,87.0689092 L13.5324214,82.820422 L13.5324214,89.1404857 C13.5324214,89.8884446 14.1382886,90.494785 14.8856636,90.494785 L18.94539,90.494785 C19.692765,90.494785 20.2986321,89.8884446 20.2986321,89.1404857 L20.2986321,69.2774283 C20.2986321,68.9182458 20.1560588,68.5737745 19.9022767,68.3197941 C19.6484946,68.0658137 19.3042921,67.923129 18.94539,67.923129 L14.557377,67.923129 C14.0565283,67.9231893 13.5966701,68.2000916 13.3620132,68.642914 L9.92377571,75.1460589 L6.48303226,68.645422 C6.24837534,68.2025996 5.78851714,67.9256973 5.28766837,67.9256369 L1.35324214,67.9256369 C0.605867144,67.9256369 5.4019458e-15,68.5319774 0,69.2799363 L0,89.1404857 C0.00138221747,89.8874649 0.606844707,90.4922784 1.35324214,90.4922771 Z" id="Shape" fill="#000000" fill-rule="nonzero"></path>
                        <path d="M36.0864571,88.3153662 L36.4272737,89.511664 C36.5928784,90.093215 37.1236559,90.4944237 37.7278897,90.494785 L41.4868957,90.494785 C41.9142649,90.4953942 42.3167106,90.2935579 42.5720249,89.9505666 C42.8273391,89.6075753 42.9053987,89.1638966 42.7824997,88.7542596 C41.4317636,84.265008 37.86572,72.4073646 36.8282343,68.9413615 C36.6565974,68.3704273 36.1308842,67.9799128 35.5351363,67.9808121 L29.4204866,67.9808121 C28.8236667,67.9807854 28.2972972,68.37205 28.1248825,68.9438694 L22.1731231,88.7567675 C22.0455519,89.168304 22.1212732,89.6160343 22.3770624,89.9626346 C22.6328516,90.3092348 23.0381794,90.513337 23.4687272,90.5123408 L27.3931294,90.5123408 C27.9973632,90.5119794 28.5281407,90.1107707 28.6937454,89.5292197 L29.034562,88.332922 C29.2001667,87.751371 29.7309442,87.3501623 30.335178,87.349801 L34.7858411,87.349801 C35.3852033,87.3478874 35.9144201,87.7407731 36.0864571,88.3153662 Z M30.6684766,82.1056529 L32.4727994,75.7855892 L34.2771223,82.1056529 L30.6684766,82.1056529 Z" id="Shape" fill="#000000" fill-rule="nonzero"></path>
                        <path d="M6.76621071,94.5501592 L1.35324214,94.5501592 C0.605867144,94.5501592 9.15270399e-17,95.1564997 0,95.9044586 L0,110.350318 C1.07123646e-14,111.098277 0.605867144,111.704618 1.35324214,111.704618 L7.21729143,111.704618 C13.4271693,111.704618 16.2389057,108.150836 16.2389057,103.127389 C16.2389057,98.1039411 12.9735825,94.5501592 6.76621071,94.5501592 Z M7.21729143,106.284912 L6.31513,106.284912 C6.066005,106.284912 5.86404928,106.082799 5.86404928,105.833479 L5.86404928,100.416282 C5.86404928,100.166962 6.066005,99.9648487 6.31513,99.9648487 L7.21729143,99.9648487 C8.9714942,99.9648487 9.92377571,100.905334 9.92377571,103.124881 C9.92377571,105.344427 8.9664822,106.292436 7.21729143,106.292436 L7.21729143,106.284912 Z" id="Shape" fill="#000000" fill-rule="nonzero"></path>
                        <path d="M61.266785,102.156807 C60.6853921,101.767237 59.4390728,101.32918 57.5278271,100.842635 L56.5830636,100.609395 C56.5162368,100.594347 56.419338,100.568432 56.2923671,100.531648 C54.8539209,100.16883 54.1346977,99.7157245 54.1346977,99.1723328 C54.1131788,98.8377856 54.2693448,98.5166328 54.5456824,98.3271497 C54.9279025,98.1156789 55.3629563,98.0190216 55.7986843,98.0487659 C56.3143793,98.0175142 56.8276078,98.1415539 57.2722147,98.4048965 C57.6180432,98.6431529 58.2320142,99.0394108 58.3122063,99.5234475 L61.7579618,99.5234475 C62.0333577,99.5245922 62.2941074,99.399438 62.4656106,99.1837913 C62.6371138,98.9681446 62.7004759,98.6857633 62.6375692,98.4174363 C62.3948196,97.3185653 61.763912,96.3443028 60.8608124,95.6737261 C59.4131584,94.6294793 57.6682209,94.079034 55.8838885,94.103742 C54.0695037,94.0728082 52.2961485,94.6452767 50.8418085,95.7314092 C49.6163726,96.6593551 48.8370053,97.7603503 48.8370053,99.3855096 C48.8751541,100.20134 49.0906681,100.999022 49.4685183,101.72293 C49.8004725,102.373215 50.2876815,102.931445 50.8869166,103.348089 C51.3781086,103.648002 51.9029981,103.888764 52.450663,104.065366 C53.1673802,104.321178 54.1296857,104.605414 55.3375796,104.918073 L56.0167067,105.086107 C57.4919077,105.457285 58.2303435,105.93965 58.2320142,106.533201 C58.234954,106.901452 58.030445,107.23998 57.7032474,107.408479 C57.2567368,107.642553 56.7556845,107.752542 56.2522711,107.72699 C55.5171766,107.72699 54.964185,107.597412 54.5932964,107.338256 C54.2224079,107.08746 53.9392294,106.437898 53.7988932,105.833479 L49.889527,105.833479 C49.6178458,105.833289 49.3604625,105.955302 49.188503,106.165801 C49.0165435,106.3763 48.9482158,106.652996 49.0024016,106.919427 C49.275556,108.238615 49.8519369,109.387261 50.8568445,110.154697 C52.1298945,111.127787 53.708677,111.699602 55.8813825,111.699602 C58.2395322,111.699602 60.1942153,111.127787 61.4597473,110.154697 C62.7252793,109.181608 63.2766002,107.646736 63.2766002,105.830971 C63.2766002,104.990804 63.18889,104.411465 62.8555915,103.794506 C62.4680133,103.126614 61.9224237,102.564235 61.266785,102.156807 Z" id="Shape" fill="#000000" fill-rule="nonzero"></path>
                        <path d="M46.5966378,94.5501592 L42.7599457,94.5501592 C42.1065332,94.5504215 41.5466298,95.0178997 41.4292576,95.6611863 L39.8279211,104.47918 L38.2265845,95.6611863 C38.1092123,95.0178997 37.549309,94.5504215 36.8958964,94.5501592 L33.0566983,94.5501592 C32.6311956,94.5499609 32.2303784,94.750061 31.9746038,95.0903738 C31.7188293,95.4306865 31.637887,95.8715762 31.7560823,96.2806529 L35.9335909,110.724005 C36.1010449,111.303567 36.6313725,111.702391 37.234207,111.70211 L42.4166232,111.70211 C43.0194576,111.702391 43.5497852,111.303567 43.7172392,110.724005 L47.8947478,96.2806529 C48.0128211,95.8719999 47.9321745,95.4315725 47.6769796,95.0913755 C47.4217847,94.7511784 47.0216996,94.5507488 46.5966378,94.5501592 Z" id="Shape" fill="#000000" fill-rule="nonzero"></path>
                        <path d="M28.8666597,94.5501592 L18.942884,94.5501592 C18.5839819,94.5501592 18.2397794,94.6928439 17.9859973,94.9468243 C17.7322152,95.2008047 17.5896419,95.5452761 17.5896419,95.9044586 L17.5896419,110.350318 C17.5896419,111.098277 18.195509,111.704618 18.942884,111.704618 L28.8666597,111.704618 C29.6140347,111.704618 30.2199018,111.098277 30.2199018,110.350318 L30.2199018,108.093153 C30.2199018,107.594514 29.8159904,107.190287 29.3177404,107.190287 L23.4536911,107.190287 C23.2045661,107.190287 23.0026104,106.988173 23.0026104,106.738854 L23.0026104,105.835987 C23.0026104,105.586668 23.2045661,105.384554 23.4536911,105.384554 L27.9644983,105.384554 C28.4627483,105.384554 28.8666597,104.980327 28.8666597,104.481688 L28.8666597,101.773089 C28.8666597,101.27445 28.4627483,100.870223 27.9644983,100.870223 L23.4536911,100.870223 C23.2045661,100.870223 23.0026104,100.668109 23.0026104,100.41879 L23.0026104,99.5159236 C23.0026104,99.2666039 23.2045661,99.0644904 23.4536911,99.0644904 L29.3202464,99.0644904 C29.8184964,99.0644904 30.2224079,98.6602635 30.2224079,98.1616242 L30.2224079,95.9044586 C30.2224085,95.5448411 30.0794912,95.1999892 29.8251668,94.9459365 C29.5708424,94.6918839 29.2259958,94.5494933 28.8666597,94.5501592 Z" id="Shape" fill="#000000" fill-rule="nonzero"></path>
                        <path d="M59.4499321,0.336066879 L32.0142007,12.8758758 L4.57846925,0.336066879 C2.6538582,-0.709753185 0,0.792515924 0,3.47854299 L0,55.8372611 C0,57.8436306 1.2003759,59.4788217 2.82927848,59.5289809 C2.90416261,59.5384228 2.97993471,59.5384228 3.05481884,59.5289809 L3.0924089,59.5289809 C3.13751697,59.5289809 3.17510703,59.5289809 3.21770909,59.5289809 L21.1982876,57.6605494 L17.7926282,52.8026274 C16.3040618,50.7235271 18.1083847,48.9177946 20.0179597,49.6200239 C20.4013783,49.7604697 20.817375,49.5748806 21.1907696,49.6726911 L16.6799624,34.4443471 C16.6624204,34.3916799 16.6473844,34.3390127 16.6323483,34.2863455 L16.5972643,34.1709793 C16.5972643,34.1709793 16.5972643,34.1484076 16.5972643,34.1358678 C16.3432441,32.8574387 17.0722036,31.5878256 18.3037663,31.1636902 C19.5353289,30.7395549 20.8905931,31.2913863 21.476454,32.4555334 L21.476454,32.4781051 C21.5190561,32.5633758 26.6513522,45.2361067 26.6513522,45.2361067 C26.8985158,43.9089838 28.0728349,42.9584533 29.4212904,42.9940324 C30.769746,43.0296115 31.8923872,44.0407474 32.0693328,45.3790605 C32.2564646,43.9990573 33.4419865,42.9750331 34.8334552,42.9914809 C36.1741673,42.9914809 37.2141589,44.1777468 37.4472173,45.4568073 L40.4970241,36.8544984 C40.9328766,35.6664911 42.1553912,34.9605078 43.4012561,35.1773492 C44.6471209,35.3941907 45.5596906,36.4717831 45.5691762,37.737301 C45.5691762,37.737301 45.5691762,37.7949841 45.5691762,37.8175557 L42.8526679,57.6429936 L60.8131983,59.5114252 C60.8558004,59.5114252 60.8958964,59.5114252 60.9384985,59.5114252 L60.9760885,59.5114252 C61.0509727,59.520867 61.1267448,59.520867 61.2016289,59.5114252 C62.8305315,59.4612659 63.9406912,57.8361067 63.9406912,55.8272293 L63.9406912,3.46600318 C63.9381852,0.782484076 61.3745432,-0.709753185 59.4499321,0.336066879 Z" id="Shape" fill="#CA2228" fill-rule="evenodd"></path>
                    </g>
                </g>
            </g>
        </g>
    </g>
</svg>