<?xml version="1.0" encoding="UTF-8"?>
<svg width="24px" height="24px" viewBox="0 0 24 24" version="1.1" xmlns="http://www.w3.org/2000/svg" xmlns:xlink="http://www.w3.org/1999/xlink">
    <!-- Generator: sketchtool 51.1 (57501) - http://www.bohemiancoding.com/sketch -->
    <title>D990E92B-EFD5-49D3-AB4C-055CFD8A5AA5</title>
    <desc>Created with sketchtool.</desc>
    <defs></defs>
    <g id="Symbols" stroke="none" stroke-width="1" fill="none" fill-rule="evenodd">
        <g id="icons/social/medium" fill="#222222">
            <g id="medium" transform="translate(3.000000, 5.000000)">
                <path d="M2.0925,2.84958449 L2.0925,10.6204986 C2.1319179,10.8933313 2.0434284,11.169095 1.8525,11.3684211 L0,13.6121884 L0,13.9113573 L5.25,13.9113573 L5.25,13.6121884 L3.3975,11.3684211 C3.20495268,11.1694831 3.11145368,10.8952478 3.1425,10.6204986 L3.1425,3.88919668 L7.755,13.9188366 L8.2875,13.9188366 L12.2475,3.88919668 L12.2475,11.8919668 C12.2475,12.1088643 12.2475,12.1462604 12.105,12.2883657 L10.68,13.6645429 L10.68,13.9637119 L17.6025,13.9637119 L17.6025,13.6645429 L16.23,12.3182825 C16.1075685,12.2257118 16.0468745,12.072956 16.0725,11.9218837 L16.0725,2.03434903 C16.0468745,1.88327666 16.1075685,1.73052092 16.23,1.63795014 L17.64,0.291689751 L17.64,0 L12.765,0 L9.3225,8.63850416 L5.34,0 L0.2175,0 L0.2175,0.299168975 L1.8675,2.27368421 C2.03062057,2.41866531 2.11426894,2.63276806 2.0925,2.84958449 Z" id="medium_stroke-path"></path>
            </g>
        </g>
    </g>
</svg>