<?xml version="1.0" encoding="UTF-8"?>
<svg width="366px" height="63px" viewBox="0 0 366 63" version="1.1" xmlns="http://www.w3.org/2000/svg" xmlns:xlink="http://www.w3.org/1999/xlink">
    <!-- Generator: sketchtool 51.1 (57501) - http://www.bohemiancoding.com/sketch -->
    <title>236F7421-9010-4ABA-84AB-D1449C39B37F</title>
    <desc>Created with sketchtool.</desc>
    <defs>
        <polygon id="path-1" points="0.131653164 0.0176232365 26.0273989 0.0176232365 26.0273989 32.560561 0.131653164 32.560561"></polygon>
    </defs>
    <g id="landing" stroke="none" stroke-width="1" fill="none" fill-rule="evenodd">
        <g id="Heimdall_1440&amp;&lt;" transform="translate(-878.000000, -3808.000000)">
            <g id="footer" transform="translate(173.000000, 3673.000000)">
                <g id="who-made">
                    <g id="м-лого" transform="translate(705.000000, 135.000000)">
                        <path d="M96.6600593,44.1493132 L96.6600593,30.8226906 C96.6600593,27.9922755 98.234738,26.3305019 101.085178,26.1528792 C104.581611,25.9346717 106.265785,27.0253698 107.581594,30.4256717 C110.26137,37.3498981 112.920361,44.2822755 115.59625,51.2082 C115.809159,51.7590679 116.059073,52.2997472 116.341093,52.8181811 C116.589486,53.2748038 116.924563,53.2354075 117.168225,52.8061245 C117.403777,52.390766 117.609926,51.9535019 117.782112,51.5075774 C120.506835,44.4500491 123.228516,37.3911623 125.940904,30.3287094 C127.426195,26.4614264 131.01286,25.0173509 134.698882,26.7956151 C136.121483,27.4818226 136.846893,28.6207472 136.850273,30.1612755 C136.870212,39.5548981 136.856356,48.9486906 136.869367,58.3423132 C136.870212,58.8627849 136.706475,59.0334453 136.194818,59.0259736 C134.5904,59.0027094 132.985137,59.0033887 131.38055,59.0261434 C130.90235,59.0329358 130.747062,58.8745019 130.752131,58.3927472 C130.810428,53.0187283 130.853854,47.6448792 130.895253,42.2708604 C130.917051,39.4703321 130.927189,36.6694642 130.942228,33.868766 C130.944425,33.4659736 130.960478,32.9604453 130.522156,32.8541434 C129.987688,32.724917 129.849973,33.291917 129.708372,33.6556528 C128.642984,36.391483 127.612406,39.1408981 126.559522,41.8816528 C124.646386,46.8622189 122.706552,51.8320868 120.814201,56.8204642 C119.486901,60.318917 114.639852,59.887766 113.251045,57.8435774 C112.817117,57.2050868 112.505358,56.5142943 112.234153,55.8032943 C109.457386,48.5233132 106.69194,41.2390868 103.909597,33.961483 C103.737073,33.5102943 103.610849,32.7525962 103.057962,32.8578792 C102.45489,32.9728415 102.610347,33.7290113 102.612882,34.2415019 C102.654281,42.1054642 102.708353,49.968917 102.751273,57.8328792 C102.758707,59.2044453 102.880707,59.005766 101.595314,59.0154453 C100.243852,59.0254642 98.8908681,58.9797849 97.5416022,59.0334453 C96.851846,59.0609547 96.6385994,58.8736528 96.6434997,58.1550113 C96.675774,53.4865585 96.6600593,48.8179358 96.6600593,44.1493132" id="Fill-1" fill="#0095C9"></path>
                        <path d="M305.819343,59.0172623 C303.20175,59.0172623 300.843534,59.0131868 298.485487,59.0216774 C298.134357,59.0230358 297.914858,58.8321679 297.690966,58.6100547 C294.267194,55.2106019 290.827706,51.8269415 287.426576,48.4049038 C286.612792,47.5859038 285.910025,46.6692623 285.94213,45.3763189 C285.984205,43.695866 286.775177,42.8072434 288.478784,42.7719226 C290.504795,42.7298094 292.532327,42.7489981 294.559183,42.7566396 C295.097368,42.7586774 295.623219,42.7007717 296.150759,42.6039792 C297.320573,42.3891679 298.099041,41.7075453 298.403196,40.5725264 C298.97636,38.4340925 298.988864,36.252017 298.535504,34.1033943 C298.141792,32.2381868 297.08536,31.4995075 294.683041,31.4473755 C291.193706,31.3714698 287.701329,31.4015264 284.210811,31.4393943 C282.817105,31.4545075 282.182604,32.2319038 282.180914,33.7877151 C282.173141,41.850866 282.16013,49.9141868 282.19967,57.9769981 C282.203894,58.8695264 281.947052,59.0746585 281.116033,59.0361113 C279.683293,58.9697151 278.244978,59.0035075 276.809703,59.0254132 C276.305144,59.0332245 276.057764,58.9486585 276.059285,58.3381868 C276.080745,49.4546774 276.084462,40.5709981 276.07331,31.6874887 C276.069593,28.7451679 277.247349,27.524734 279.004689,26.8687528 C279.799379,26.5720925 280.663011,26.5102811 281.502817,26.5157151 C286.990789,26.550866 292.480451,26.3773189 297.966734,26.6058849 C301.512,26.7536208 303.940171,28.6499038 304.701573,32.1616019 C305.414479,35.4501679 305.41752,38.8058094 304.52246,42.0733189 C303.525845,45.7122057 301.290811,47.3226962 297.529764,47.3406962 C296.219701,47.3471491 294.909637,47.3418849 293.326678,47.3418849 C295.542786,49.4137528 297.568122,51.3085075 299.594302,53.2022434 C301.610174,55.0863 303.626723,56.9691679 305.819343,59.0172623" id="Fill-3" fill="#0095C9"></path>
                        <path d="M232.355607,42.7662849 C232.355438,37.6444358 232.367097,32.522417 232.341244,27.4007377 C232.337865,26.7289642 232.466117,26.4570962 233.204031,26.4868132 C234.694053,26.5465868 236.188975,26.5341906 237.680011,26.4905491 C238.30995,26.4722094 238.494978,26.6564547 238.490247,27.2981717 C238.461352,31.1747943 238.496161,35.0517566 238.458142,38.9282094 C238.450707,39.6769075 238.647732,39.8800019 239.396798,39.8749075 C244.352499,39.8406057 249.308707,39.8355113 254.264239,39.8784736 C255.086302,39.8856057 255.222496,39.6071151 255.216075,38.870134 C255.183294,35.0502283 255.215737,31.2296434 255.186842,27.4095679 C255.181773,26.7315113 255.328275,26.459134 256.063316,26.4878321 C257.525288,26.5447189 258.993006,26.5498132 260.454471,26.486134 C261.223139,26.4526811 261.384172,26.7116434 261.382313,27.4438698 C261.358657,37.3479453 261.36643,47.2521906 261.36643,57.1564358 C261.36643,59.0177377 261.36643,59.0177377 259.51159,59.0177377 C258.356984,59.0177377 257.201194,58.9834358 256.048615,59.030983 C255.392147,59.057983 255.179576,58.8701717 255.184815,58.1807377 C255.217089,54.0493981 255.180928,49.9177189 255.218441,45.7865491 C255.225707,45.0050774 255.079205,44.7255679 254.222671,44.7333792 C249.267308,44.7783792 244.3111,44.7688698 239.355399,44.7398321 C238.659391,44.7357566 238.453241,44.9159264 238.459155,45.6308321 C238.493119,49.7620019 238.45172,53.8940208 238.495654,58.0250208 C238.50461,58.8633792 238.252161,59.0729264 237.453923,59.036417 C236.020676,58.9705302 234.581684,58.9888698 233.146917,59.0308132 C232.515964,59.0494925 232.338034,58.8552283 232.341244,58.2167377 C232.366759,53.0667 232.355607,47.9164925 232.355607,42.7662849" id="Fill-5" fill="#0095C9"></path>
                        <path d="M164.146877,43.4791868 C165.67627,40.9177528 167.16342,38.4279792 168.649725,35.9375264 C170.385775,33.0283189 172.136525,30.1276019 173.843342,27.2012434 C174.157974,26.6619226 174.505049,26.4771679 175.114204,26.4902434 C176.969212,26.5298094 178.825741,26.5046774 180.724852,26.5046774 C180.726204,26.9433 180.442833,27.2082057 180.26524,27.5019792 C176.029204,34.5082245 171.786409,41.5102245 167.531617,48.5049226 C167.269705,48.9352245 167.151423,49.3565264 167.154126,49.8576396 C167.169841,52.659017 167.146522,55.4603943 167.173896,58.2614321 C167.179811,58.8533943 167.005259,59.0440925 166.41334,59.0298283 C164.893578,58.9934887 163.371957,58.9909415 161.852365,59.0306774 C161.229522,59.0469792 161.031146,58.869017 161.039088,58.2223755 C161.073727,55.3933189 161.046184,52.5634132 161.061561,49.7338472 C161.063927,49.2607528 160.945475,48.8659415 160.700461,48.4631491 C156.432658,41.4431491 152.174317,34.4173755 147.925101,27.3859981 C147.777248,27.1411302 147.414966,26.8772434 147.622467,26.5912811 C147.727907,26.4457528 148.141558,26.508583 148.415974,26.5075642 C149.992849,26.5016208 151.570401,26.5326962 153.145924,26.4904132 C153.7566,26.4739415 154.104182,26.6702434 154.419489,27.2039604 C157.476924,32.3818472 160.562409,37.5432623 163.641811,42.7080736 C163.783581,42.9454698 163.944614,43.1714887 164.146877,43.4791868" id="Fill-7" fill="#0095C9"></path>
                        <path d="M205.227944,26.5046943 C210.153398,26.5045245 215.078852,26.5194679 220.004138,26.4880528 C220.715185,26.4836377 220.921841,26.6914868 220.884667,27.3882226 C220.829074,28.4317132 220.813697,29.4847132 220.888722,30.5256566 C220.945667,31.3144302 220.648609,31.4489208 219.938237,31.4416189 C216.476783,31.4061283 213.014822,31.419883 209.552861,31.4282038 C208.061318,31.4319396 208.232996,31.2295245 208.232152,32.7136755 C208.227251,41.1707887 208.220323,49.6279019 208.246514,58.0848453 C208.24888,58.8223358 208.079567,59.0702604 207.318165,59.0357887 C205.913814,58.9724491 204.503041,58.9792415 203.097844,59.0334113 C202.348609,59.0621094 202.096498,58.875317 202.099539,58.0631094 C202.131476,49.5212604 202.107819,40.9792415 202.138235,32.4375623 C202.141107,31.633166 201.964528,31.3923736 201.131988,31.4042604 C197.558165,31.4543547 193.983329,31.4098642 190.408999,31.4399208 C189.756248,31.4455245 189.522218,31.2847132 189.55821,30.5988453 C189.61583,29.4989774 189.61262,28.3916377 189.558717,27.2912604 C189.526949,26.6405434 189.744251,26.4877132 190.367431,26.4909396 C195.320766,26.5153925 200.27444,26.5046943 205.227944,26.5046943" id="Fill-9" fill="#0095C9"></path>
                        <g id="Group-13" transform="translate(339.808864, 26.468830)">
                            <mask id="mask-2" fill="white">
                                <use xlink:href="#path-1"></use>
                            </mask>
                            <g id="Clip-12"></g>
                            <path d="M0.146416898,15.0494094 C0.146416898,10.3239 0.159427978,5.59839057 0.131716066,0.873220755 C0.12782964,0.205862264 0.302887812,-0.00334528302 0.976422438,0.0200886792 C2.43873269,0.0708622642 3.90543629,0.072390566 5.36774654,0.0197490566 C6.06054432,-0.00504339623 6.26568006,0.1809 6.26314543,0.901069811 C6.23661634,8.88050377 6.24658587,16.8601075 6.24675485,24.8395415 C6.24675485,25.2922585 6.25892105,25.7453151 6.2477687,26.1976925 C6.22867452,26.9803528 6.62711773,27.4155792 7.36469391,27.5480321 C7.72173823,27.6118811 8.08909003,27.6449943 8.45171053,27.645334 C14.0270429,27.6512774 19.6020374,27.6602774 25.1768629,27.6349755 C25.8348518,27.6320887 26.0594197,27.7969755 26.0239349,28.4791075 C25.9661454,29.5794849 25.9778047,30.6864849 26.0205554,31.7883906 C26.043705,32.3842585 25.8485388,32.5676547 25.2591537,32.5603528 C22.9506163,32.5321642 20.641403,32.5489755 18.3326967,32.5489755 C13.7431648,32.5489755 9.15346399,32.5554283 4.56410111,32.541334 C3.94835596,32.539466 3.32196537,32.4890321 2.71956925,32.3667679 C1.1244446,32.0429377 0.1531759,30.7841264 0.149796399,29.0559566 C0.140333795,24.3871642 0.146416898,19.7182019 0.146416898,15.0494094" id="Fill-11" fill="#0095C9" mask="url(#mask-2)"></path>
                        </g>
                        <path d="M319.136353,42.7700887 C319.136015,37.5669 319.145309,32.3640509 319.12199,27.1612019 C319.119624,26.6276547 319.259029,26.4836547 319.775417,26.4936736 C321.322552,26.5237302 322.872054,26.5486925 324.417331,26.4860321 C325.196982,26.454617 325.260009,26.8008623 325.258827,27.4376547 C325.243281,37.3627868 325.248012,47.2880887 325.248012,57.2133906 C325.248012,59.0178057 325.248012,59.0178057 323.425616,59.0178057 C322.243804,59.0178057 321.061317,58.9935226 319.88035,59.0285038 C319.322732,59.0449755 319.114386,58.9357868 319.118611,58.2940698 C319.151054,53.1195792 319.136691,47.9447491 319.136353,42.7700887" id="Fill-14" fill="#0095C9"></path>
                        <path d="M124.240457,0.895516981 C125.653258,0.69734717 125.656975,0.696158491 126.029227,1.99996981 C127.073831,5.65906415 128.114887,9.31883774 129.19413,13.1069887 C129.563003,12.5523849 129.620455,12.019517 129.763914,11.5282528 C130.737211,8.19604528 131.725884,4.86791321 132.634294,1.51770566 C132.852272,0.713988679 133.347031,0.870215094 133.886568,0.80670566 C134.518197,0.732158491 134.69072,1.0488566 134.839588,1.57391321 C135.917311,5.37293208 137.020042,9.16498868 138.113311,12.9533094 C138.45954,12.9483849 138.37877,12.6785547 138.424056,12.5196113 C139.425233,9.01946038 140.417624,5.51659245 141.41238,2.01457358 C141.779563,0.722139623 141.780407,0.722309434 143.256574,0.889573585 C142.466277,3.60196981 141.682402,6.30570566 140.890078,9.00706415 C140.357806,10.8213283 139.777039,12.6226868 139.294615,14.4500264 C139.125133,15.0922528 138.864743,15.2691962 138.217061,15.2888943 C137.505338,15.3106302 137.25272,15.0474226 137.070903,14.4028189 C136.074626,10.8717623 135.035768,7.35276226 134.010765,3.8298566 C133.939964,3.5868566 133.86325,3.34555472 133.768455,3.0348 C133.377784,3.53778113 133.336216,4.10613962 133.184477,4.62049811 C132.201718,7.94981887 131.238222,11.2849132 130.28064,14.6215358 C130.160499,15.0401208 130.018729,15.3778755 129.499975,15.2559509 C129.065202,15.1538943 128.467031,15.5711208 128.241618,14.7952528 C126.911446,10.2149321 125.563194,5.63970566 124.224067,1.06193208 C124.209535,1.01234717 124.233867,0.951215094 124.240457,0.895516981" id="Fill-16" fill="#717E82"></path>
                        <path d="M145.349972,7.98165849 C145.349972,5.8323566 145.365349,3.68288491 145.339158,1.53375283 C145.332568,0.994601887 145.46572,0.801526415 146.038376,0.808488679 C148.542587,0.839224528 151.047473,0.832432075 153.552022,0.812733962 C154.054554,0.808828302 154.293316,0.879130189 154.300075,1.48467736 C154.307171,2.13760189 154.036135,2.20128113 153.501329,2.19414906 C151.559806,2.16765849 149.617437,2.20688491 147.676421,2.17020566 C147.047834,2.15831887 146.776291,2.27837547 146.817352,2.98971509 C146.882238,4.11709245 146.870917,5.25279057 146.820224,6.38169623 C146.792343,7.00371509 147.018601,7.12801698 147.587202,7.11731887 C149.415681,7.0833566 151.245681,7.12292264 153.074329,7.09354528 C153.610149,7.08488491 153.795853,7.21954528 153.799401,7.79096038 C153.803288,8.38105472 153.581255,8.48396038 153.062501,8.47665849 C151.205465,8.45101698 149.347584,8.48446981 147.490717,8.45526226 C146.974498,8.44711132 146.808903,8.59094151 146.822928,9.11905472 C146.858412,10.4474887 146.867368,11.7783 146.820224,13.1058849 C146.798088,13.7284132 146.954221,13.9279415 147.603593,13.9136774 C149.656978,13.8688472 151.712052,13.9106208 153.766113,13.8876962 C154.279966,13.8820925 154.513152,13.9792245 154.510111,14.5733943 C154.507238,15.1534698 154.300919,15.2736962 153.774224,15.2691113 C151.185526,15.246866 148.596152,15.2465264 146.007454,15.2696208 C145.491404,15.2742057 145.332906,15.120866 145.339158,14.5993755 C145.364842,12.3935264 145.349972,10.1875075 145.349972,7.98165849" id="Fill-18" fill="#717E82"></path>
                        <path d="M169.513407,8.03936038 C169.513407,5.89005849 169.530135,3.7407566 169.502086,1.59162453 C169.494651,1.03260566 169.598739,0.797586792 170.228509,0.806756604 C172.732551,0.843096226 175.237437,0.836643396 177.741648,0.809983019 C178.284734,0.804209434 178.454216,0.9477 178.460806,1.51130377 C178.467565,2.10598302 178.238097,2.19988868 177.722723,2.19360566 C175.725099,2.16915283 173.726631,2.20719057 171.729346,2.16949245 C171.127457,2.15794528 170.963382,2.34253019 170.985011,2.93058679 C171.028775,4.11654906 171.018637,5.30607736 170.988221,6.49305849 C170.975886,6.97566226 171.128809,7.12068113 171.607684,7.11456792 C173.492601,7.09011509 175.378701,7.12730377 177.263448,7.09113396 C177.840667,7.08009623 177.956922,7.28454906 177.959457,7.81673774 C177.96216,8.34603962 177.798086,8.48613396 177.28457,8.47798302 C175.455922,8.44877547 173.626091,8.49020943 171.797612,8.45336038 C171.197243,8.44096415 170.951554,8.55745472 170.981293,9.23007736 C171.038576,10.5282849 171.038069,11.8327755 170.981462,13.130983 C170.952399,13.7973226 171.185753,13.9223038 171.792036,13.9110962 C173.78949,13.8740774 175.787789,13.9026057 177.78575,13.8934358 C178.284565,13.8910585 178.69416,13.8300962 178.679966,14.5988321 C178.666786,15.3154358 178.296224,15.2599075 177.825798,15.2587189 C175.349468,15.2517566 172.872631,15.2335868 170.396978,15.2746811 C169.716515,15.2862283 169.47826,15.1313604 169.495665,14.4018509 C169.545681,12.2820962 169.513407,10.1603038 169.513407,8.03936038" id="Fill-20" fill="#717E82"></path>
                        <path d="M219.052791,7.80802642 C220.327201,5.76383774 221.605835,3.86602642 222.71296,1.8722717 C223.273619,0.862403774 223.963376,0.653535849 224.967425,0.885667925 C224.970636,1.19472453 224.739985,1.38661132 224.592301,1.61347925 C223.115459,3.88266792 221.642672,6.15440377 220.142511,8.40763019 C219.829739,8.87766792 219.693545,9.34363019 219.703514,9.90604528 C219.731226,11.4599887 219.688137,13.0151208 219.725819,14.5687245 C219.740013,15.1469321 219.52947,15.2686868 219.000747,15.2722528 C218.462392,15.2759887 218.271112,15.1358943 218.283955,14.5660075 C218.320622,12.9560264 218.283279,11.3443472 218.305076,9.7338566 C218.311498,9.25770566 218.184935,8.8668 217.924714,8.47317736 C216.277883,5.98204528 214.648794,3.47902642 213.00737,0.969724528 C214.352581,0.588498113 214.666367,0.705837736 215.335678,1.79195094 C216.547567,3.75802642 217.763342,5.72172453 219.052791,7.80802642" id="Fill-22" fill="#717E82"></path>
                        <path d="M208.361147,13.534183 C207.255712,13.9690698 206.095022,13.8974094 204.942612,13.8969 C203.441776,13.8960509 203.441776,13.8967302 203.441776,12.3988245 C203.441945,11.2108245 203.453942,10.0223151 203.435693,8.83448491 C203.429441,8.44035283 203.545358,8.26986226 203.959347,8.29125849 C204.492801,8.31876792 205.02879,8.29788113 205.815707,8.29788113 C206.463895,8.28735283 207.364532,8.25746604 208.237795,8.55174906 C209.458809,8.9633717 210.050898,9.74144717 210.076582,10.9915981 C210.101928,12.2218811 209.531299,13.0738245 208.361147,13.534183 M203.603654,2.31882453 C204.081347,1.87408868 205.048729,2.22508868 205.799823,2.18365472 C206.422665,2.14918302 207.036552,2.22457925 207.632696,2.39031509 C208.773953,2.70769245 209.393247,3.52923962 209.389022,4.66986226 C209.384967,5.81048491 208.760773,6.62048491 207.612925,6.92699434 C206.37079,7.25863585 205.098576,7.04518302 203.841233,7.10478679 C203.475064,7.12210755 203.436538,6.9098434 203.440086,6.62320189 C203.447859,5.97435283 203.442452,5.32550377 203.442114,4.67682453 C203.441776,4.62044717 203.438058,4.56373019 203.442283,4.50769245 C203.498889,3.75780566 203.115992,2.77273019 203.603654,2.31882453 M211.370762,9.87322075 C210.928554,8.5629566 209.871446,7.96454151 208.458815,7.56514528 C209.635219,7.14435283 210.385637,6.51316415 210.722067,5.46305094 C211.370762,3.4373717 210.194189,1.48539057 207.995823,1.01959811 C206.134732,0.624956604 204.240352,0.88680566 202.361856,0.823975472 C201.852396,0.80699434 201.959696,1.18906981 201.959527,1.47774906 C201.955302,5.8568434 201.96561,10.2361075 201.945164,14.6152019 C201.942629,15.1606358 202.141006,15.2744094 202.63154,15.2640509 C203.980468,15.2353528 205.330579,15.2677868 206.679507,15.2438434 C207.585045,15.2280509 208.46456,15.0366736 209.293214,14.6586736 C211.200097,13.7890698 212.041593,11.8617113 211.370762,9.87322075" id="Fill-24" fill="#717E82"></path>
                        <path d="M187.522685,13.7404868 C186.180009,13.9982604 184.828378,13.8352415 183.48266,13.9029962 C182.939406,13.9305057 182.994153,13.5929208 182.99466,13.2468453 C182.997364,11.5217321 182.995843,9.79661887 182.995843,8.07150566 C182.995843,6.31820377 182.99466,4.56473208 182.997195,2.81143019 C182.997533,2.51069434 182.918115,2.16173208 183.423181,2.18261887 C184.797624,2.23950566 186.177306,2.07427925 187.547525,2.33952453 C190.385123,2.88903396 192.306201,5.20543019 192.289303,8.09324151 C192.272912,10.9280717 190.342372,13.1994679 187.522685,13.7404868 M188.437178,1.12503396 C186.274129,0.557184906 184.065624,0.912430189 181.87858,0.830920755 C181.361685,0.811562264 181.518156,1.24509057 181.516804,1.51661887 C181.505652,3.66727925 181.510552,5.81810943 181.510552,7.96893962 C181.510552,10.1761472 181.50768,12.3835245 181.51427,14.5909019 C181.515115,14.8758453 181.395311,15.2681094 181.909671,15.2514679 C183.960184,15.1849019 186.026918,15.4654302 188.060195,15.0549962 C191.414012,14.3779585 193.741644,11.6798264 193.820555,8.44814717 C193.911126,4.74337358 191.931752,2.04269434 188.437178,1.12503396" id="Fill-26" fill="#717E82"></path>
                        <path d="M115.238733,14.231683 C111.777279,14.2306642 109.301625,11.6228717 109.318353,7.99502264 C109.335082,4.3868717 111.842334,1.82221132 115.330993,1.84479623 C118.720802,1.86670189 121.177362,4.49436226 121.167054,8.08756981 C121.156916,11.6597208 118.674334,14.2327019 115.238733,14.231683 M115.311054,0.482230189 C110.976675,0.4644 107.789636,3.65158868 107.781018,8.01200377 C107.77257,12.3460981 110.922772,15.5767585 115.174353,15.5940792 C119.50924,15.6120792 122.695603,12.4259094 122.704389,8.06464528 C122.713007,3.73123019 119.56196,0.499720755 115.311054,0.482230189" id="Fill-28" fill="#717E82"></path>
                        <path d="M159.126797,7.26393396 C158.782763,7.27293396 158.836835,6.98612264 158.835146,6.77114151 C158.829401,6.06472642 158.832949,5.35848113 158.832949,4.65223585 C158.853733,4.65206604 158.874348,4.65189623 158.894963,4.65189623 C158.894963,3.86583962 158.588611,2.81810377 158.974719,2.36216038 C159.429431,1.82487736 160.503268,2.23429245 161.306913,2.18861321 C162.099913,2.14361321 162.882775,2.23887736 163.618999,2.55183962 C164.547179,2.94614151 165.071678,3.75834906 165.037038,4.75616038 C165.002736,5.74463208 164.560528,6.48806604 163.627955,6.87795283 C162.170883,7.48706604 160.634561,7.22470755 159.126797,7.26393396 M164.935991,11.8858585 C164.256204,10.7839528 163.577431,9.68119811 162.86875,8.53140566 C163.136575,8.44921698 163.343739,8.38078302 163.553437,8.32253774 C165.611215,7.7504434 166.56998,6.40723585 166.453894,4.25589623 C166.357578,2.47033019 165.211082,1.31510377 163.177129,0.970216981 C161.387176,0.666424528 159.581847,0.890575472 157.784966,0.820273585 C157.293248,0.800745283 157.347489,1.13561321 157.34732,1.44619811 C157.347151,5.8305566 157.360162,10.2147453 157.332619,14.5987642 C157.328733,15.2228208 157.598079,15.2752925 158.087769,15.2700283 C158.560223,15.264934 158.87063,15.2549151 158.847819,14.6113302 C158.796619,13.1704811 158.831766,11.7265755 158.831766,10.2841981 C158.831766,8.63278302 158.83278,8.66487736 160.438888,8.62021698 C161.056492,8.60306604 161.392583,8.80446226 161.697583,9.33953774 C162.634043,10.9821226 163.630996,12.5898962 164.606658,14.2098962 C165.331392,15.4133491 165.421456,15.4491792 166.940711,15.1316321 C166.264304,14.0366887 165.599725,12.9616132 164.935991,11.8858585" id="Fill-30" fill="#717E82"></path>
                        <path d="M102.233601,7.08434151 C101.016642,7.40647358 99.7718028,7.23054906 98.5391296,7.27232264 C98.1528526,7.28539811 98.170426,7.02168113 98.170764,6.76085094 C98.1714399,6.08262453 98.170933,5.4042283 98.1711019,4.72600189 C98.1711019,4.04777547 98.1724537,3.36954906 98.1702571,2.69132264 C98.1694122,2.42454906 98.1672155,2.1717 98.5479163,2.18545472 C99.7804205,2.22977547 101.024584,2.05011509 102.242725,2.36783208 C103.528288,2.70303962 104.122235,3.45360566 104.117842,4.71903962 C104.113786,5.95271887 103.483171,6.75337925 102.233601,7.08434151 M102.282096,0.969775472 C100.662132,0.677530189 99.0267917,0.908133962 97.4027723,0.810322642 C96.774523,0.772284906 96.665872,1.02581321 96.6734759,1.58839811 C96.7022017,3.73515283 96.6851352,5.8827566 96.6851352,8.03002075 C96.6851352,10.2056434 96.7103125,12.3816057 96.6697584,14.5563792 C96.6574233,15.2101528 96.9353873,15.2678887 97.465969,15.2763792 C98.0066892,15.2848698 98.1949274,15.1427377 98.1827612,14.5721717 C98.1466006,12.8776245 98.2094593,11.1805302 98.1515008,9.4871717 C98.1263235,8.75290755 98.3694787,8.59481321 99.0499413,8.61926604 C100.141182,8.65849245 101.237661,8.69483208 102.326706,8.47594528 C104.412703,8.05685094 105.613778,6.69207736 105.606174,4.69136038 C105.598739,2.67671887 104.414562,1.35456792 102.282096,0.969775472" id="Fill-32" fill="#717E82"></path>
                        <path d="M33.9050504,4.40201887 C33.9035296,3.37635849 33.8910255,3.36583019 33.0304355,3.83179245 C29.339682,5.83013208 25.6631224,7.85479245 21.9847042,9.87571698 C21.504815,10.1392642 21.0605795,10.5337358 20.4548039,10.505717 C19.119056,10.1073396 17.7275463,10.0428113 16.3613828,9.83207547 C13.6917457,9.41977358 11.0145047,9.05654717 8.33946039,8.68058491 C5.77424986,8.32007547 3.20768753,7.96788679 0.640956233,7.61654717 C0.474684765,7.59362264 0.301992244,7.61230189 0.179823269,7.4640566 C3.23421662,5.77290566 6.28742715,4.07937736 9.3438482,2.39128302 C10.6505324,1.66958491 11.9661723,0.964018868 13.2726875,0.241471698 C13.5754909,0.0742075472 13.8646072,-0.0392264151 14.2289175,0.0127358491 C20.6621363,0.930396226 27.096031,1.84364151 33.5324604,2.73854717 C34.097682,2.81716981 34.3334022,2.97628302 34.3220809,3.62156604" id="Fill-34" fill="#007AA3"></path>
                        <path d="M71.7370645,17.8647113 C71.5518679,17.2662962 71.008782,17.3079 70.5621809,17.2387868 C69.06371,17.0075038 67.5594939,16.8140887 66.0574745,16.6059 C61.2190424,15.9351453 56.389059,15.2017302 51.5413332,14.5989 C51.1126435,14.7074094 51.2123388,15.0592585 51.210649,15.3509943 C51.204059,16.4979 51.2013554,17.6451453 51.2121698,18.7920509 C51.2153803,19.1379566 51.2131837,19.4631453 50.878444,19.6709943 C51.0161587,21.4482396 50.9272778,23.2282019 50.9443443,25.0069755 C50.9548208,26.1068434 50.892469,26.1518434 49.7775715,25.9903528 C47.3296296,25.635617 44.8820258,25.2769755 42.4320562,24.9366736 C41.9707543,24.8724849 41.4749814,24.7368057 41.1066158,25.1941075 C40.9660285,25.4814283 40.9594385,25.7928623 40.9592695,26.1024283 C40.9579177,31.1431075 40.9418651,36.1837868 40.9685632,41.2246358 C40.9516657,42.9427868 40.9518346,44.6609377 40.9633249,46.3787491 C40.9677183,47.0225038 40.8727543,47.6764472 41.0947875,48.306617 C41.4770091,48.9019755 42.1258734,48.8391453 42.6892363,48.9136925 C44.2803055,49.1235792 45.8642778,49.3871264 47.4573748,49.5773151 C48.5910285,49.7128245 49.7072778,50.0352962 50.8632363,49.9498811 C50.9750978,51.1383906 50.9281227,52.3311453 50.946203,53.5222019 C50.9521172,53.9075038 50.8845271,54.3201453 51.2057488,54.6351453 C51.2187598,56.6097113 51.2731698,58.5852962 51.2251809,60.558334 C51.2054108,61.3764849 51.4517765,61.684183 52.2686019,61.7758811 C54.2466241,61.9979943 56.2096075,62.3527302 58.1867848,62.584183 C59.3320978,62.7181642 60.4564579,63.0747679 61.6289759,62.9533528 C61.736951,59.8609189 61.6565188,56.7671264 61.6712197,53.6740132 C61.6749371,52.8896547 61.7533416,52.1008811 61.6095438,51.3190698 C61.3805825,51.001183 61.0211726,51.0232585 60.6964025,50.9765604 C57.6475853,50.5392962 54.6058651,50.0478623 51.5420091,49.7206358 L51.5425161,49.498183 C51.6210895,49.2735226 51.6030091,48.9987679 51.604023,48.7404849 C51.6141615,45.7225981 51.6050368,42.7043717 51.6128097,39.6864849 C51.6136546,39.3589189 51.515818,39.0012962 51.7944579,38.7180509 C52.6111144,38.4882962 53.4056352,38.7740887 54.2021837,38.8741075 C56.3221449,39.1398623 58.4314607,39.490183 60.550577,39.7654472 C61.5610479,39.8965415 61.7195465,39.7430321 61.7611144,38.788183 C61.7722668,38.5341453 61.7666906,38.2795981 61.7666906,38.0252208 C61.7670285,35.1712019 61.763987,32.317183 61.7680424,29.463334 C61.7699011,28.2692208 61.8063997,28.2408623 62.9415742,28.3762019 C65.4261837,28.6725226 67.9082584,28.9887113 70.3886435,29.3186547 C70.798915,29.3729943 71.2298014,29.5057868 71.5768762,29.1335604 C71.7739011,28.7635415 71.7122252,28.3597302 71.7144219,27.9678057 C71.7325022,24.6002774 71.6902584,21.2327491 71.7370645,17.8647113" id="Fill-36" fill="#0095C9"></path>
                        <path d="M41.2076798,48.6275943 C40.9177186,48.0892925 40.3685496,48.1023679 39.8834222,48.0310472 C37.1620787,47.6301226 34.4383695,47.2449906 31.7153363,46.8556132 C31.4280787,46.8145189 31.1428488,46.772066 30.8866825,46.9172547 C30.8910759,46.9091038 30.8980039,46.9033302 30.9020593,46.8948396 C30.9422753,46.7939717 30.9737047,46.6895377 30.992292,46.5817075 C31.0225385,46.3862547 31.026087,46.1884245 31.0264249,45.9911038 C31.0343668,38.8795755 31.0308183,31.7678774 31.0276078,24.6563491 C31.0274388,24.3184245 31.0314942,23.9771038 30.8816133,23.659217 C30.6078737,23.2628774 30.1780011,23.2265377 29.7613086,23.1730472 C26.9473668,22.8115189 24.1444083,22.3725566 21.334015,21.9848774 C21.1106299,21.9541415 20.8762615,21.967217 20.7731867,21.7040094 C20.6564249,18.4675755 20.7517269,15.227066 20.7181008,11.9872358 C20.7132006,11.5098962 20.7620343,11.0276321 20.6192504,10.5591226 C20.2116825,9.86459434 19.4776548,10.0308396 18.8767795,9.94389623 C13.7595385,9.20436792 8.63790416,8.4945566 3.52049418,7.75451887 C2.41539723,7.59472642 1.31317285,7.3245566 0.179688089,7.46414151 C-0.0644808864,7.57417925 0.0127407202,7.79833019 0.0125717452,7.98121698 C0.00817839335,11.4885 0.017134072,14.9956132 6.75900277e-05,18.5028962 C-0.00229806094,18.9666509 0.139303047,19.1242358 0.601280886,19.1918208 C3.52184598,19.6195755 6.43430028,20.1028585 9.35621717,20.5205943 C10.0550981,20.6206132 10.3445524,20.8147075 10.3318792,21.6084057 C10.2788211,24.9450283 10.3242753,28.2831792 10.2962255,31.6206509 C10.2909873,32.257783 10.3884859,32.5466321 11.1220066,32.6295 C14.0268571,32.9577453 16.921231,33.3768396 19.8201673,33.758066 C20.1572726,33.802217 20.5056992,33.775217 20.4952227,34.2912736 C20.4668349,35.7007075 20.4629485,37.1106509 20.4494305,38.5202547 C20.4428404,38.5725566 20.4362504,38.6248585 20.4298294,38.6771604 C20.3225302,40.7325566 20.398738,42.7891415 20.3891064,44.8453868 C20.3872476,45.2337453 20.499785,45.5691226 20.879641,45.7543868 C21.2463169,45.9123113 21.6376632,45.9678396 22.0256299,46.0252358 C24.6374776,46.4117264 27.2647019,46.6912358 29.8638765,47.1655189 C30.1423474,47.2162925 30.4216632,47.2434623 30.6903335,47.1210283 C30.7079069,47.1110094 30.7205801,47.0964057 30.7366327,47.0848585 C30.2624886,48.6243679 30.4862116,50.1866321 30.6095634,51.7455 C30.8790787,51.9659151 30.7564028,52.271066 30.7584305,52.5363113 C30.7724554,54.3719717 30.7873252,56.2081415 30.761472,58.0432925 C30.754544,58.5359151 30.8895551,58.7454623 31.3912421,58.8057453 C32.672918,58.9594245 33.9453003,59.1925755 35.2274831,59.3404811 C37.1769485,59.5649717 39.0987019,60.0069906 41.0664166,60.0813679 C41.3521535,59.7536321 41.3342421,59.3494811 41.334918,58.9551792 C41.3401562,55.8185943 41.3411701,52.6820094 41.334749,49.5454245 C41.3340731,49.2348396 41.3318765,48.9223868 41.2076798,48.6275943" id="Fill-38" fill="#0095C9"></path>
                        <path d="M20.470282,45.4547377 C20.0579828,45.159266 19.5647446,45.1631717 19.0980355,45.0972849 C17.2889884,44.8410396 15.4838277,44.5566057 13.6717391,44.3236245 C12.6163208,44.1879453 11.5740825,43.9072472 10.4951767,43.9984358 C10.1322183,44.2027189 10.2895341,44.5532094 10.2885202,44.8369642 C10.2768609,47.8575679 10.2812543,50.8780019 10.2812543,53.8987755 C10.2812543,55.628983 10.2755091,55.6680396 11.9814814,55.9242849 C14.5046172,56.3036434 17.0100105,56.8061151 19.5535922,57.0460585 C20.2110742,57.2630774 20.5086393,56.9998698 20.5116809,56.3289453 C20.5130327,56.0188698 20.5160742,55.7087943 20.517933,55.3988887 C20.537703,52.1862283 20.47721,48.9733981 20.5483485,45.7598887 C20.5488554,45.6510396 20.5235091,45.5500019 20.470282,45.4547377" id="Fill-40" fill="#0095C9"></path>
                        <path d="M50.8783765,19.6709434 C51.2384623,19.7218868 51.2016258,19.9981698 51.2017947,20.2505094 C51.2028086,22.110283 51.1977393,23.9700566 51.206864,25.83 C51.2092296,26.2806792 51.1494125,26.4538868 50.5865565,26.3633774 C47.7557172,25.9081132 44.9142324,25.5195849 42.0751133,25.1179811 C41.8000219,25.0790943 41.5151299,25.1096604 41.2348003,25.1081321 C41.1856285,24.9087736 41.3137116,24.7938113 41.4414568,24.6846226 C41.6557172,24.5019057 41.900562,24.3641887 42.1415205,24.2213774 C44.5549914,22.7902075 44.1572241,23.5144528 44.1952435,20.6699434 C44.2106202,19.517434 44.1976091,18.3645849 44.1979471,17.2117358 C44.1979471,16.8439245 44.2045371,16.4788302 44.4059554,16.1516038 C44.4264014,16.1259623 44.4475233,16.1006604 44.4688141,16.0755283 C44.7266701,16.5221321 44.5816895,17.0093208 44.5869277,17.474434 C44.6072047,19.3090755 44.5952075,21.1440566 44.5952075,23.1062264 C46.7508224,21.927566 48.8146839,20.7993396 50.8783765,19.6709434" id="Fill-42" fill="#007AA3"></path>
                        <path d="M61.5225743,51.2563415 C61.6287339,51.2543038 61.7348935,51.252266 61.8410531,51.2502283 C61.8425744,55.0940774 61.8442649,58.9379264 61.8457863,62.7817755 C61.7736045,62.8390019 61.7014228,62.8962283 61.629072,62.9534547 C61.4749039,62.756134 61.5257861,62.5234925 61.5256171,62.3032472 C61.5225743,58.6208887 61.5229124,54.9387 61.5225743,51.2563415" id="Fill-44" fill="#00536E"></path>
                        <path d="M20.4476055,45.4822642 C20.4506471,43.178434 20.4538576,40.874434 20.4568992,38.5709434 C20.7309767,38.7879623 20.6050903,39.0922642 20.6067801,39.3551321 C20.6184393,41.1510566 20.6184393,42.9471509 20.6079629,44.7430755 C20.6059352,45.0932264 20.6164116,45.4141698 20.945913,45.6242264 C20.945744,45.6240566 20.9516582,45.6753396 20.9516582,45.6753396 C20.6938022,45.7887736 20.6978576,46.0168302 20.6981956,46.2477736 C20.7015751,49.752 20.6932953,53.2560566 20.7015751,56.7601132 C20.701744,56.8513019 20.7463535,56.9204151 20.7830211,56.9956415 C20.7999186,57.0316415 20.803805,57.0691698 20.7948493,57.1082264 C20.7042787,57.2320189 20.5836305,57.2396604 20.4503091,57.1982264 C20.3355751,57.051 20.3666665,56.8769434 20.3666665,56.7105283 C20.3654837,53.1908491 20.3653147,49.671 20.3664975,46.1511509 C20.3664975,45.9838868 20.3435169,45.8115283 20.4394947,45.6580189 C20.4421983,45.5992642 20.4449019,45.5408491 20.4476055,45.4822642" id="Fill-46" fill="#007DA9"></path>
                        <path d="M20.4395116,45.6580528 C20.4430601,49.5047887 20.4466086,53.3516943 20.450326,57.1982604 C20.1414396,57.2079396 19.8310324,57.2266189 19.5539133,57.0461094 C20.152254,57.1065623 20.2941931,56.8126189 20.2901377,56.2466377 C20.2666501,53.0103736 20.2757748,49.7736 20.2837166,46.5369962 C20.2845615,46.2411849 20.1718551,45.9114113 20.4395116,45.6580528" id="Fill-48" fill="#009AD0"></path>
                        <path d="M52.2607784,14.9212019 C54.8562355,15.2662585 57.4506787,15.6199755 60.0439391,15.9825226 C62.7191524,16.356617 65.3984211,16.7074472 68.0641717,17.1409755 C69.2605152,17.3357491 70.5114377,17.2652774 71.6459363,17.8034094 C71.5629695,17.9275415 71.5653352,18.0683151 71.5653352,18.2095981 C71.5648283,21.7308057 71.5648283,25.2520132 71.5653352,28.7730509 C71.5653352,28.914334 71.5626316,29.0551075 71.6464432,29.1790698 C71.9347147,28.9330132 71.810856,28.5983151 71.8115319,28.3038623 C71.8204875,24.9954283 71.8264017,21.6868245 71.8076454,18.3783906 C71.8047729,17.8681075 71.9424875,17.5648245 72.4146039,17.3092585 C76.7895374,14.9390321 81.1499391,12.541466 85.5145651,10.1518811 C85.4385263,10.1177491 85.3653601,10.0634094 85.2862798,10.0520321 C78.6959141,9.12367358 72.1050416,8.20006981 65.5150139,7.27001321 C65.1650665,7.22059811 64.8617562,7.27374906 64.5488144,7.44610755 C60.2157867,9.83552264 55.8780277,12.2161075 51.5414515,14.5989 C51.6936981,14.9062585 51.9777452,14.8836736 52.2607784,14.9212019" id="Fill-50" fill="#007AA3"></path>
                        <path d="M74.7206911,43.6760321 C73.3305332,43.4849943 71.9368269,43.3160321 70.5515693,43.0939189 C68.7263006,42.801334 66.872813,42.690617 65.0725526,42.2380698 C64.8511953,42.4073717 64.6477493,42.6101264 64.405946,42.7415604 C60.1207382,45.0730698 55.8307992,47.3957491 51.5420429,49.7206358 C51.7689765,50.0261264 52.1013504,50.0302019 52.4394695,50.0716358 C53.513644,50.2032396 54.5815665,50.3876547 55.6569238,50.5075415 C57.6161898,50.7260887 59.546223,51.1745604 61.5225554,51.2564094 C61.6305305,51.3557491 61.7368158,51.3543906 61.8409044,51.2502962 C62.4681399,50.8807868 63.0872645,50.496334 63.7243006,50.1446547 C67.2435443,48.202183 70.7659986,46.2656547 74.2918324,44.3352396 C74.5299183,44.2049943 74.7877742,43.9302396 75.0491787,44.0598057 C75.3398158,44.203466 75.1884141,44.5683906 75.189428,44.8327868 C75.2039598,48.3954283 75.2071704,51.9582396 75.2130845,55.5210509 C75.4075748,55.4254472 75.3709072,55.2417113 75.3709072,55.0795415 C75.3693864,51.4949943 75.3535028,47.9104472 75.3753006,44.3260698 C75.3785111,43.7981264 75.1020679,43.728334 74.7206911,43.6760321" id="Fill-52" fill="#007AA3"></path>
                        <path d="M34.3217091,14.5656679 C33.5058975,15.0054792 32.6868753,15.439517 31.8746122,15.8856113 C29.6105152,17.1294792 27.3699058,18.4186868 25.0792798,19.6105925 C23.5400859,20.4115925 22.0972078,21.3998943 20.4669363,22.0239509 C20.5414543,22.1645547 20.6700443,22.1932528 20.8150249,22.2131208 C24.1233878,22.6661774 27.4312438,23.1224604 30.7392687,23.5778943 C31.0868504,23.7380264 31.3210499,23.4804226 31.5812715,23.3389698 C34.5371524,21.7322151 37.5023269,20.1421019 40.4418172,18.5056302 C41.7829723,17.7591396 43.2094598,17.1544415 44.4291219,16.1948377 C44.4423019,16.1547623 44.455651,16.1151962 44.468831,16.0756302 C44.3390582,16.0323283 44.2121579,15.9676302 44.0790055,15.9486113 C40.8269114,15.4846868 37.5743102,15.0256868 34.3217091,14.5656679" id="Fill-54" fill="#007AA3"></path>
                        <path d="M20.4494136,38.5203396 C17.1312501,40.3463208 13.8132557,42.1723019 10.4950922,43.9984528 C13.7821643,44.6990943 17.1180701,45.0691132 20.4475548,45.4822642 C20.5869593,43.1787736 20.5732723,40.8751132 20.4568485,38.571283 L20.4494136,38.5203396 Z" id="Fill-56" fill="#007AA3"></path>
                        <path d="M40.6619072,41.5984925 C37.7192064,43.1965868 34.7775194,44.7967189 31.8262008,46.3786811 C31.4919681,46.5578321 31.2192424,46.9173226 30.767741,46.8283415 C30.7636856,46.8887943 30.7596302,46.9492472 30.7555748,47.0095302 C30.9787909,47.0198887 31.2045416,47.0122472 31.4247161,47.0434925 C33.3219681,47.312983 35.2247964,47.5510585 37.1125859,47.877266 C38.4226496,48.1037943 39.7656634,48.1384358 41.0451427,48.5447943 C41.1081704,48.4848509 41.1710291,48.4250774 41.2338878,48.365134 C41.2321981,45.9882849 41.2306773,43.6114358 41.2291565,41.2342472 C41.0404114,41.3563415 40.8587632,41.4915113 40.6619072,41.5984925" id="Fill-58" fill="#007AA3"></path>
                        <path d="M71.6460455,17.8033585 L71.6465526,29.1790189 C71.5899229,29.1844528 71.5344765,29.1790189 71.4802134,29.1622075 C71.4795372,25.6681698 71.4761564,22.1743019 71.4830872,18.680434 C71.4837633,18.3846226 71.3713491,18.0534906 71.6460455,17.8033585" id="Fill-60" fill="#009BD1"></path>
                        <path d="M20.783071,56.9956075 C20.5002605,56.7821547 20.6260292,56.4744566 20.6250149,56.2109094 C20.6148723,52.9651358 20.6106462,49.7191925 20.6273816,46.4734189 C20.6287339,46.1962868 20.3880153,45.7491736 20.9519459,45.674966 C20.7303293,46.0054189 20.786959,46.3803623 20.78679,46.7440981 C20.7840853,50.1612113 20.7839162,53.5784943 20.783071,56.9956075" id="Fill-62" fill="#00516C"></path>
                        <path d="M85.5145482,10.1518981 C85.1617283,10.1002755 84.8499693,10.2259358 84.5527421,10.3906528 C80.6401244,12.5610113 76.7102712,14.6997849 72.7689277,16.8159736 C71.9030994,17.2807472 71.6195593,17.8854453 71.6288529,18.8479358 C71.6614651,22.2095208 71.682249,25.5721245 71.6224319,28.9342189 C71.5915094,29.0208226 71.5440274,29.0965585 71.4801548,29.1621057 C68.5607726,28.8032943 65.6380108,28.4675774 62.7230219,28.0751434 C61.5055565,27.9111057 61.5123155,27.8564264 61.5121465,29.1137094 C61.5119776,32.3939547 61.5003183,35.6745396 61.5241438,38.9547849 C61.5280302,39.4815396 61.4124512,39.6352189 60.8744346,39.5521811 C59.0743432,39.2738604 57.2632684,39.0682189 55.4652047,38.7797094 C54.1674762,38.5713509 52.8449083,38.5270302 51.5681327,38.1838415 C51.3528584,38.4609736 51.4637061,38.7832755 51.4628612,39.0818038 C51.4532296,42.5247283 51.4582989,45.9676528 51.4562712,49.4126151 C51.4270385,49.7252377 51.5752296,49.8245774 51.8601216,49.752917 C52.135044,49.6838038 52.3852961,49.5522 52.6306479,49.4161811 C56.5365066,47.2497283 60.4589249,45.1138415 64.3852296,42.984917 C64.6836396,42.822917 65.0824208,42.7072755 65.0724512,42.2380868 C65.0732961,40.9653509 65.1101327,39.6910868 65.0587643,38.4205585 C65.0356147,37.8454075 65.2491992,37.5742189 65.7299332,37.3161057 C68.7317753,35.7044264 71.7087781,34.0460491 74.7138307,32.440483 C75.2153488,32.1725208 75.3821271,31.8741623 75.3583017,31.3205774 C75.3148751,30.3044264 75.4069665,29.2808038 75.3366729,28.2677094 C75.2891909,27.5840491 75.5739139,27.2739736 76.1264623,26.9708604 C79.1137726,25.3321811 82.0757366,23.646634 85.0598363,22.0016717 C85.5108307,21.7530679 85.6749055,21.474917 85.6706812,20.9491811 C85.6436452,17.5833509 85.6600357,14.2170113 85.6498972,10.8508415 C85.6492213,10.6192189 85.7849083,10.3392 85.5145482,10.1518981" id="Fill-64" fill="#005876"></path>
                        <path d="M21.4666435,21.8330491 C25.5051476,19.5698038 29.6027931,17.4155774 33.6382557,15.1470679 C33.9016878,14.9988226 34.2183471,14.9069547 34.3217598,14.565634 C34.30689,13.8306906 34.2920202,13.0954075 34.2771504,12.3604642 C34.3217598,11.9651434 34.3227737,11.7763132 34.3217598,11.4769358 C34.3122972,8.88069057 34.3052003,6.21770943 34.3220978,3.62163396 C34.3259842,3.02848302 34.0003693,2.99027547 33.4790812,3.28082264 C31.1511116,4.57869057 28.8055687,5.84395472 26.4738817,7.13486038 C24.4622335,8.24882264 22.4607238,9.38146415 20.4548208,10.5057849 C20.4588762,14.3450491 20.4629316,18.1846528 20.466818,22.023917 C20.8468429,22.2100302 21.1635022,22.0028604 21.4666435,21.8330491" id="Fill-66" fill="#005876"></path>
                        <path d="M75.2772105,44.7662038 C75.2768726,43.7396943 75.0894792,43.6339019 74.1536953,44.1562415 C73.1462659,44.7189962 72.1285291,45.2623925 71.1195789,45.8222604 C68.2649141,47.4062604 65.3838892,48.9415245 62.5397008,50.544034 C62.2005679,50.7350717 61.8213878,50.895034 61.7056399,51.3285623 C61.6500471,51.5477887 61.6211524,51.7722792 61.6196316,51.9984679 C61.596313,55.3310151 61.6086482,58.6637321 61.6138864,61.9964491 C61.6142244,62.2771472 61.6091551,62.5676943 61.8457202,62.7818264 C63.0459501,62.3729208 64.0870055,61.6498642 65.188554,61.0504302 C68.5403435,59.2261472 71.8730388,57.3667132 75.213169,55.521034 C75.3302687,55.2790528 75.2745069,55.0206 75.2748449,54.7701283 C75.2789003,51.4353736 75.2782244,48.1007887 75.2772105,44.7662038" id="Fill-68" fill="#005876"></path>
                        <path d="M50.8435507,49.7355113 C48.8601213,49.616134 46.910318,49.2316811 44.9476726,48.9531906 C43.7077335,48.7769264 42.4432931,48.740417 41.2337695,48.365134 C41.0793263,48.3279453 41.0102155,48.3810962 41.0450244,48.5447943 C41.0521213,52.3905113 41.0592183,56.2358887 41.0663152,60.0814358 C41.3182571,59.9674925 41.5783097,59.8688321 41.8209579,59.7372283 C44.9505452,58.0392849 48.0777668,56.3367566 51.2056643,54.6352472 C51.2100576,53.2572283 51.2034676,51.8790396 51.2266172,50.5013604 C51.2323623,50.1551151 51.1438194,49.9037943 50.8435507,49.7355113" id="Fill-70" fill="#005876"></path>
                        <path d="M30.7602723,47.0049283 C30.5083305,46.9932113 30.2497986,47.0142679 30.0054607,46.9648528 C27.0085188,46.3591358 23.9637571,46.0830226 20.9456934,45.6240226 C20.8983803,45.6510226 20.8510673,45.6781925 20.8040922,45.7055321 C20.5102446,46.0004943 20.5543471,46.3825698 20.5518125,46.7454566 C20.5420119,48.2167019 20.5339011,49.6882868 20.5514745,51.1593623 C20.5739482,53.0534377 20.4693526,54.9490415 20.6112917,56.8414189 C20.6476213,56.9475509 20.7084524,57.0367019 20.7947986,57.1083623 C24.0663249,55.3207585 27.3380202,53.5329849 30.6092086,51.7457208 C30.7812252,51.4696075 30.7631449,51.1614 30.762469,50.8542113 C30.7599343,49.5709472 30.7606102,48.2880226 30.7602723,47.0049283" id="Fill-72" fill="#005876"></path>
                        <path d="M41.2348341,25.1078943 C42.0597704,24.4719509 42.9960612,24.0222906 43.9004158,23.5218566 C44.2567842,23.3247057 44.4502607,23.1129509 44.4446845,22.6748377 C44.4166346,20.5005736 44.4161277,18.3259698 44.4059892,16.1517057 C43.9771305,16.3592151 43.5386402,16.5490642 43.1212717,16.7776302 C38.991859,19.0407057 34.8661637,21.310234 30.7394546,23.5778943 C30.7489172,31.328083 30.7583798,39.0782717 30.7678424,46.8282906 C31.1532745,47.0605925 31.4692579,46.8157245 31.7764546,46.6528755 C34.728618,45.088234 37.6353271,43.4390264 40.5908701,41.8810075 C40.8788036,41.7291962 41.0805598,41.5138755 41.2290889,41.234366 C41.2311166,35.8589887 41.2329753,30.4834415 41.2348341,25.1078943" id="Fill-74" fill="#005876"></path>
                    </g>
                </g>
            </g>
        </g>
    </g>
</svg>