<?xml version="1.0" encoding="UTF-8"?>
<svg width="24px" height="24px" viewBox="0 0 24 24" version="1.1" xmlns="http://www.w3.org/2000/svg" xmlns:xlink="http://www.w3.org/1999/xlink">
    <!-- Generator: sketchtool 51.1 (57501) - http://www.bohemiancoding.com/sketch -->
    <title>EEF7B33B-D839-462C-93F2-F041B2C1467C</title>
    <desc>Created with sketchtool.</desc>
    <defs></defs>
    <g id="Symbols" stroke="none" stroke-width="1" fill="none" fill-rule="evenodd">
        <g id="icons/social/pres" fill="#0155FC" fill-rule="nonzero">
            <g id="pres" transform="translate(2.000000, 2.000000)">
                <path d="M19.1879072,9.96428571 C19.1045738,10.0285714 19.0212405,10.0714286 18.9587405,10.1357143 L18.9587405,2.03571429 C18.9379072,0.9 18.1254072,0 17.1045738,0 L2.85457384,0 C1.85457384,0 1.02124051,0.9 1.02124051,2.03571429 L1.02124051,10.1357143 C0.937907176,10.0714286 0.854573843,10.0071429 0.771240509,9.96428571 C0.167073843,9.53571429 -0.228759491,10.1142857 0.146240509,10.6928571 C0.875407176,11.6142857 2.25040718,12.75 4.35457384,13.6285714 C2.12540718,21.45 9.81290718,22.6928571 9.70874051,18.6857143 C9.70874051,18.75 9.70874051,16.4142857 9.70874051,14.7428571 C9.91707384,14.7857143 10.0837405,14.85 10.2504072,14.8714286 C10.2504072,16.5214286 10.2504072,18.75 10.2504072,18.6857143 C10.1254072,22.6928571 17.8337405,21.45 15.5837405,13.6285714 C17.6879072,12.7285714 19.0837405,11.5928571 19.7920738,10.6928571 C20.1879072,10.1142857 19.7920738,9.51428571 19.1879072,9.96428571 Z M11.5837405,11.9571429 C10.6462405,11.9142857 10.2920738,12.3214286 10.2504072,12.9642857 C10.0212405,12.7928571 9.79207384,12.6 9.56290718,12.3857143 C9.52124051,12.3428571 9.47957384,12.3214286 9.45874051,12.2785714 C9.25040718,12.0642857 8.91707384,11.9357143 8.37540718,11.9571429 C7.10457384,12 4.79207384,12.2571429 2.10457384,10.8 L2.10457384,2.95714286 C2.10457384,1.52142857 2.45874051,1.07142857 3.72957384,1.07142857 L16.3545738,1.07142857 C17.5629072,1.07142857 17.9795738,1.60714286 17.9795738,2.93571429 L17.9795738,10.7142857 C15.2295738,12.2571429 12.8754072,12 11.5837405,11.9571429 Z M12.9587405,6.27857143 C11.6045738,6.27857143 10.5004072,7.32857143 10.5004072,8.63571429 C10.5004072,9.94285714 11.6045738,10.9928571 12.9587405,10.9928571 C14.3129072,10.9928571 15.4170738,9.94285714 15.4170738,8.63571429 C15.4170738,7.32857143 14.3129072,6.27857143 12.9587405,6.27857143 Z M7.27124051,6.27857143 C8.62540718,6.27857143 9.72957384,7.32857143 9.72957384,8.63571429 C9.72957384,9.94285714 8.62540718,10.9928571 7.27124051,10.9928571 C5.91707384,10.9928571 4.81290718,9.94285714 4.81290718,8.63571429 C4.81290718,7.32857143 5.91707384,6.27857143 7.27124051,6.27857143 Z" id="slideshare"></path>
            </g>
        </g>
    </g>
</svg>