<?xml version="1.0" encoding="UTF-8"?>
<svg width="52px" height="52px" viewBox="0 0 52 52" version="1.1" xmlns="http://www.w3.org/2000/svg" xmlns:xlink="http://www.w3.org/1999/xlink">
    <!-- Generator: sketchtool 51.1 (57501) - http://www.bohemiancoding.com/sketch -->
    <title>502FECDA-EB7F-4E00-9120-39D603FC1A30</title>
    <desc>Created with sketchtool.</desc>
    <defs></defs>
    <g id="landing" stroke="none" stroke-width="1" fill="none" fill-rule="evenodd">
        <g id="Heimdall_1440&amp;&lt;" transform="translate(-298.000000, -1283.000000)" fill-rule="nonzero">
            <g id="Why-do-you-need-Heimdall?" transform="translate(176.000000, 1189.000000)">
                <g id="blocks" transform="translate(0.000000, 94.000000)">
                    <g id="1">
                        <g id="icons/security" transform="translate(122.000000, 0.000000)">
                            <path d="M30.5,4 C24.9990243,4 17.1884757,5.75660293 13.0452465,6.74716981 C10.665691,7.32830189 9,9.36226584 9,11.6603774 L9,22.5962264 C9,30.969813 14.2630208,38.0490583 19.3580729,43.0547161 C24.4391285,48.0603774 29.5481771,51.0716981 29.5481771,51.0716981 L30.5139965,51.6528302 L31.4658194,51.0716981 C31.4658194,51.0716981 36.5608715,47.9811338 41.6419271,42.9358491 C46.7369792,37.9037744 52,30.8377358 52,22.5962264 L52,11.6603774 C52,9.36226584 50.334309,7.32830189 47.96875,6.74716981 L47.9547535,6.74716981 C43.8115243,5.75660293 36.0009757,4 30.5,4 Z" id="Shape-Copy" fill="#F2EEFF"></path>
                            <path d="M22.2333411,44.8449041 C22.8995188,44.4042435 23.6446229,43.8862045 24.4486767,43.2954914 C26.7494263,41.6052028 29.0507657,39.6786633 31.1924736,37.5565671 C37.4012495,31.4243532 41,25.1107021 41,18.5962264 L41,7.66037736 C41,6.34004513 40.0374535,5.12765582 38.6208376,4.7237023 L38.4896982,4.6923494 C31.5041733,3.02224393 25.7695807,2 21.5,2 C17.2304193,2 11.4958267,3.02224393 4.5197389,4.69006892 C3.02219837,5.0557964 2,6.29926779 2,7.66037736 L2,18.5962264 C2,25.2287566 5.60174729,31.5781176 11.7616766,37.6299717 C13.974651,39.8007366 16.2667663,41.690065 18.5582183,43.3396562 C19.3589216,43.9160737 20.1008432,44.4203886 20.7640564,44.8483795 C21.0984766,45.0641906 21.3466461,45.2183882 21.5058822,45.3142099 C21.6574767,45.2201758 21.9038696,45.0628415 22.2333411,44.8449041 Z M21.5,0 C27.0009757,0 34.8115243,1.75660293 38.9547535,2.74716981 C41.334309,3.32830189 43,5.36226584 43,7.66037736 L43,18.5962264 C43,26.8377358 37.7369792,33.9037744 32.6419271,38.9358491 C27.5608715,43.9811338 22.4658194,47.0716981 22.4658194,47.0716981 L21.5139965,47.6528302 L20.5481771,47.0716981 C20.5481771,47.0716981 15.4391285,44.0603774 10.3580729,39.0547161 C5.26302083,34.0490583 0,26.969813 0,18.5962264 L0,7.66037736 C0,5.36226584 1.665691,3.32830189 4.0452465,2.74716981 C8.18847567,1.75660293 15.9990243,0 21.5,0 Z" id="Shape" fill="#6732FF"></path>
                        </g>
                    </g>
                </g>
            </g>
        </g>
    </g>
</svg>