<?xml version="1.0" encoding="UTF-8"?>
<svg width="24px" height="24px" viewBox="0 0 24 24" version="1.1" xmlns="http://www.w3.org/2000/svg" xmlns:xlink="http://www.w3.org/1999/xlink">
    <!-- Generator: sketchtool 51.1 (57501) - http://www.bohemiancoding.com/sketch -->
    <title>4878E039-D267-4B1B-B969-DD6DF9566FDD</title>
    <desc>Created with sketchtool.</desc>
    <defs></defs>
    <g id="Symbols" stroke="none" stroke-width="1" fill="none" fill-rule="evenodd">
        <g id="icons/social/telek" fill="#4A90E2" fill-rule="nonzero">
            <g id="telegram" transform="translate(2.000000, 3.000000)">
                <path d="M11.2037187,14.0709505 C10.0831186,15.1918115 9.07963198,16.1949694 8.90909091,16.3636364 C8.63863636,16.6254545 8.43181818,16.8545455 7.95454545,16.8545455 L7.95454545,16.6909091 L8.3426705,11.9003371 L8.27272727,11.8472727 L17.15,3.64909091 C17.5318182,3.28909091 17.0545455,3.10909091 16.5454545,3.43636364 L5.61590909,10.5218182 L0.890909091,9 C-0.127272727,8.68909091 -0.143181818,7.96909091 1.11363636,7.44545455 L19.5045455,0.147272727 C20.3477273,-0.245454545 21.1590909,0.343636364 20.8409091,1.66909091 L17.7068182,16.8545455 C17.4840909,17.9345455 16.8477273,18.18 15.9727273,17.6890909 L11.2037187,14.0709505 Z" id="path2991"></path>
            </g>
        </g>
    </g>
</svg>