<?xml version="1.0" encoding="UTF-8"?>
<svg width="24px" height="24px" viewBox="0 0 24 24" version="1.1" xmlns="http://www.w3.org/2000/svg" xmlns:xlink="http://www.w3.org/1999/xlink">
    <!-- Generator: sketchtool 51.1 (57501) - http://www.bohemiancoding.com/sketch -->
    <title>F526FF6C-CD8E-40A9-9B30-69CD6D2CD174</title>
    <desc>Created with sketchtool.</desc>
    <defs>
        <polygon id="path-1" points="0 0.00068 19.7390905 0.00068 19.7390905 16.6107 0 16.6107"></polygon>
    </defs>
    <g id="Symbols" stroke="none" stroke-width="1" fill="none" fill-rule="evenodd">
        <g id="icons/social/tw">
            <g id="tw" transform="translate(2.000000, 4.000000)">
                <mask id="mask-2" fill="white">
                    <use xlink:href="#path-1"></use>
                </mask>
                <g id="Clip-2"></g>
                <path d="M19.7390905,1.96701333 C19.01328,2.30021333 18.2327326,2.52461333 17.4127747,2.62774667 C18.2502484,2.10868 18.8928589,1.28588 19.1939116,0.307813333 C18.4111747,0.788346667 17.5452379,1.13628 16.62128,1.32441333 C15.8845221,0.509546667 14.8313853,0.00068 13.6654905,0.00068 C11.4300379,0.00068 9.61715368,1.87861333 9.61715368,4.19401333 C9.61715368,4.52268 9.65218526,4.84114667 9.72115368,5.14828 C6.35593263,4.97148 3.37277474,3.30548 1.37488,0.76568 C1.02565895,1.38788 0.826416842,2.10868 0.826416842,2.87708 C0.826416842,4.32888 1.54018526,5.61408 2.62835368,6.36661333 C1.96384842,6.34508 1.33875368,6.15468 0.79248,5.84301333 L0.79248,5.89401333 C0.79248,7.92608 2.18826947,9.62154667 4.04275368,10.0057467 C3.70229053,10.1043467 3.34431158,10.15308 2.97429053,10.15308 C2.71374316,10.15308 2.45866947,10.1281467 2.21344842,10.0794133 C2.72797474,11.74428 4.22338526,12.9569467 5.99576421,12.9909467 C4.60982737,14.1152133 2.86262737,14.7850133 0.966543158,14.7850133 C0.639216842,14.7850133 0.316269474,14.7657467 -0.000109473684,14.7272133 C1.79197474,15.91608 3.92123789,16.6108133 6.20814316,16.6108133 C13.6578274,16.6108133 17.7302484,10.2222133 17.7302484,4.68021333 C17.7302484,4.49774667 17.7258695,4.31641333 17.7193011,4.13734667 C18.5107958,3.54574667 19.1971958,2.80681333 19.7390905,1.96701333" id="Fill-1" fill="#51A1FF" mask="url(#mask-2)"></path>
            </g>
        </g>
    </g>
</svg>